<svg version="1.1" id="Layer_1" xmlns="http://www.w3.org/2000/svg" xmlns:xlink="http://www.w3.org/1999/xlink" x="0px" y="0px"
	 width="100%" viewBox="0 0 224 225" enable-background="new 0 0 224 225" xml:space="preserve">
<path fill="#FFFFFF" opacity="1.000000" stroke="none" 
	d="
M124.000000,226.000000 
	C82.666672,226.000000 41.833340,226.000000 1.000005,226.000000 
	C1.000004,151.000000 1.000004,76.000015 1.000002,1.000015 
	C75.666656,1.000010 150.333313,1.000010 224.999969,1.000005 
	C224.999985,75.999985 224.999985,150.999969 225.000000,225.999969 
	C191.500000,226.000000 158.000000,226.000000 124.000000,226.000000 
M64.267609,81.017578 
	C62.835022,81.557976 61.402431,82.098373 60.015442,82.621567 
	C60.834251,85.213165 61.459400,87.191818 62.060799,89.618256 
	C62.060799,89.618256 61.859150,90.018753 61.357204,90.462021 
	C61.271458,91.337311 61.185711,92.212608 61.122860,93.105164 
	C61.122860,93.105164 61.146454,93.126167 60.489021,93.509392 
	C60.000767,96.048798 59.080456,98.593155 59.109535,101.126625 
	C59.181622,107.405968 59.687614,113.680328 60.005199,120.852676 
	C60.018887,124.584091 60.032574,128.315506 60.042194,132.739227 
	C60.028713,134.492615 60.015228,136.246002 59.226929,138.021988 
	C55.783905,138.746140 56.712242,141.046021 57.742195,142.915619 
	C59.039108,145.269821 60.772919,147.383316 62.594017,149.996414 
	C64.083542,149.996414 66.073524,150.117813 68.043053,149.968842 
	C71.246330,149.726562 74.551071,148.601700 77.609558,149.099426 
	C85.751144,150.424377 88.202827,149.426147 90.917755,141.410355 
	C91.781448,138.860306 92.804230,138.510254 94.761902,139.793289 
	C98.746269,142.404617 101.060593,140.332458 103.873444,137.001007 
	C105.916954,137.000885 107.960457,137.000748 110.091736,137.738037 
	C113.143265,141.868912 115.653305,140.299698 118.515602,136.414490 
	C120.342354,136.270676 122.169098,136.126877 124.816666,135.989517 
	C131.653687,136.743195 133.523132,141.378220 133.812958,147.837692 
	C134.913910,147.130814 135.404205,145.555801 136.060730,145.483139 
	C141.634140,144.866455 147.238388,144.530655 152.832108,144.094269 
	C154.896606,143.933197 157.272583,144.307022 158.941559,143.398788 
	C161.083664,142.233093 161.045441,130.767471 158.854126,129.797089 
	C153.207901,127.296776 154.698044,122.292610 154.305664,117.398117 
	C156.049515,117.023499 157.793365,116.648872 160.000610,116.174706 
	C160.000610,113.871361 160.000610,111.435631 160.557678,108.527397 
	C162.191284,107.252312 163.824890,105.977219 165.353516,104.784073 
	C165.563232,101.655952 165.786041,98.332603 166.880020,95.005188 
	C169.095062,95.005188 171.310089,95.005188 174.208099,95.005188 
	C173.132126,92.030243 172.122864,90.102852 171.792877,88.065445 
	C171.507904,86.306023 171.505066,84.186005 172.246307,82.642693 
	C173.665421,79.688011 175.701706,77.029747 177.481888,74.248482 
	C177.029160,73.793594 176.576431,73.338707 176.123688,72.883812 
	C174.581619,73.694000 173.039551,74.504181 171.412231,75.359146 
	C170.049484,71.211906 169.874527,65.746086 163.015778,66.327545 
	C163.002335,65.887314 162.988907,65.447075 163.541092,64.516113 
	C164.732056,54.389050 161.242386,50.000683 151.204407,49.997768 
	C146.810257,49.904942 143.784119,48.034458 142.269485,43.695217 
	C141.198624,40.627323 139.782837,37.750195 135.442520,39.589073 
	C134.443237,40.012440 132.984283,39.350788 131.729645,39.187511 
	C131.472336,40.866760 131.255707,42.280449 130.855133,44.894688 
	C129.646805,43.219395 129.337952,42.289394 128.777512,42.098698 
	C125.949074,41.136272 123.540329,36.259743 119.267471,41.001122 
	C116.629211,40.933254 114.362305,40.202484 111.290657,41.296322 
	C107.217636,42.746758 101.751167,43.912708 97.550621,39.247574 
	C97.167206,40.879444 96.845428,42.249001 96.494438,43.742851 
	C95.003990,43.742851 93.705330,43.742851 92.190346,43.742851 
	C93.646393,46.104874 94.874451,48.097057 96.142502,50.154114 
	C93.835503,50.154114 92.419876,50.154114 91.004250,50.154114 
	C91.812057,52.064346 92.619865,53.974575 93.491119,56.034847 
	C92.524185,56.886620 91.233353,58.023716 89.310799,59.075127 
	C88.887390,59.099369 88.463982,59.123615 88.020058,58.426605 
	C88.011169,57.945656 88.002281,57.464703 88.072243,56.259281 
	C89.274414,49.823277 82.492744,55.001820 81.004272,51.732445 
	C81.004272,54.152374 81.004272,56.572308 80.900375,59.676083 
	C80.481461,60.159138 80.149467,60.907917 79.628296,61.078407 
	C77.572418,61.750946 74.981262,61.669441 73.468910,62.926586 
	C70.812973,65.134331 69.169701,68.251923 69.717903,72.652809 
	C67.358658,74.988007 64.179810,76.862877 64.267609,81.017578 
M97.500000,156.999268 
	C72.072655,156.999268 46.645309,156.999268 21.288082,156.999268 
	C21.288082,169.312332 21.288082,181.050964 21.288082,192.723801 
	C83.643845,192.723801 145.710205,192.723801 207.710678,192.723801 
	C207.710678,180.686264 207.710678,168.947754 207.710678,156.999268 
	C171.114563,156.999268 134.807281,156.999268 97.500000,156.999268 
M86.090210,49.495407 
	C85.734131,49.904488 85.378044,50.313568 85.021965,50.722649 
	C85.654076,50.753506 86.286186,50.784363 86.918304,50.815220 
	C86.827019,50.310829 86.735733,49.806438 86.090210,49.495407 
z"/>
<path fill="#010101" opacity="1.000000" stroke="none" 
	d="
M98.000000,156.999268 
	C134.807281,156.999268 171.114563,156.999268 207.710678,156.999268 
	C207.710678,168.947754 207.710678,180.686264 207.710678,192.723801 
	C145.710205,192.723801 83.643845,192.723801 21.288082,192.723801 
	C21.288082,181.050964 21.288082,169.312332 21.288082,156.999268 
	C46.645309,156.999268 72.072655,156.999268 98.000000,156.999268 
M122.688583,188.005203 
	C123.123024,187.955368 123.557465,187.905533 124.816811,188.020813 
	C126.213936,187.967697 127.611053,187.914566 129.896820,187.998734 
	C132.594910,187.948654 135.293015,187.898575 138.816879,188.010971 
	C140.214355,187.960220 141.611847,187.909485 143.936737,187.994507 
	C163.523560,187.994507 183.110382,187.994507 202.778839,187.994507 
	C202.778839,179.127426 202.778839,170.728027 202.778839,162.262436 
	C187.449829,162.262436 172.351181,162.262436 157.234421,162.358322 
	C157.234421,162.358322 157.270798,162.359421 156.349792,162.020874 
	C150.569672,162.061584 144.789551,162.102295 138.082214,161.988312 
	C113.176071,161.981552 88.269890,161.957169 63.363884,162.012512 
	C61.896053,162.015762 60.429649,162.661087 58.195751,162.896454 
	C55.177750,162.924820 52.159752,162.953186 48.711487,162.200485 
	C41.161480,162.200485 33.611477,162.200485 26.306896,162.200485 
	C26.306896,171.087448 26.306896,179.478851 26.306896,187.858246 
	C35.083019,187.858246 43.537922,187.858246 52.919441,188.015030 
	C70.833878,188.021561 88.748466,188.063614 106.662544,187.986511 
	C108.741196,187.977585 110.816994,187.307907 113.492851,187.240570 
	C114.338585,187.460175 115.184311,187.679794 116.884575,187.941559 
	C118.599754,187.956345 120.314941,187.971146 122.688583,188.005203 
z"/>
<path fill="#FBF4F2" opacity="1.000000" stroke="none" 
	d="
M89.942520,59.160812 
	C91.233353,58.023716 92.524185,56.886620 93.491119,56.034847 
	C92.619865,53.974575 91.812057,52.064346 91.004250,50.154114 
	C92.419876,50.154114 93.835503,50.154114 96.142502,50.154114 
	C94.874451,48.097057 93.646393,46.104874 92.190346,43.742851 
	C93.705330,43.742851 95.003990,43.742851 96.494438,43.742851 
	C96.845428,42.249001 97.167206,40.879444 97.550621,39.247574 
	C101.751167,43.912708 107.217636,42.746758 111.290657,41.296322 
	C114.362305,40.202484 116.629211,40.933254 119.916260,41.199516 
	C121.729530,43.303780 122.894005,45.209648 123.949524,47.384888 
	C123.534309,47.889763 123.228043,48.125271 122.568085,48.201309 
	C120.794899,44.461834 118.156128,43.461895 114.429939,43.809883 
	C110.810173,44.147930 107.115974,43.679909 103.493568,44.003601 
	C102.248161,44.114891 100.583153,45.284042 100.028580,46.418900 
	C96.929779,52.760105 93.814156,59.123367 91.268524,65.697578 
	C87.383369,75.731171 83.958679,85.943047 79.967712,96.190887 
	C78.696198,98.536201 77.795448,100.769852 76.539352,102.923782 
	C74.796822,100.231461 73.409630,97.618874 72.017807,94.671539 
	C72.016357,93.890526 72.019547,93.444260 72.387955,93.002693 
	C74.058525,93.165192 75.363861,93.322975 77.295822,93.556503 
	C76.311455,91.633217 75.634529,90.310631 75.013046,88.594170 
	C75.744987,84.834732 76.421478,81.469162 77.472099,78.064713 
	C84.566368,77.124664 83.290749,69.952713 86.806984,66.423332 
	C86.777206,66.284470 86.930267,66.045197 87.244446,66.006454 
	C88.045403,65.377617 88.532181,64.787529 89.319611,63.959473 
	C89.727684,62.201275 89.835106,60.681046 89.942520,59.160812 
z"/>
<path fill="#F9EBE7" opacity="1.000000" stroke="none" 
	d="
M153.980423,118.016594 
	C154.698044,122.292610 153.207901,127.296776 158.854126,129.797089 
	C161.045441,130.767471 161.083664,142.233093 158.941559,143.398788 
	C157.272583,144.307022 154.896606,143.933197 152.832108,144.094269 
	C147.238388,144.530655 141.634140,144.866455 136.060730,145.483139 
	C135.404205,145.555801 134.913910,147.130814 133.812958,147.837692 
	C133.523132,141.378220 131.653687,136.743195 124.515709,135.772186 
	C124.415535,135.289734 124.674561,135.107224 125.349632,135.001434 
	C126.469872,134.317581 127.232300,133.639633 127.944199,132.629395 
	C126.970428,131.873947 126.047203,131.450775 125.073120,130.650543 
	C124.956276,129.519119 124.890289,128.764771 124.866997,127.761993 
	C124.883698,127.347565 124.857697,127.181549 124.901810,126.680740 
	C124.935699,125.664032 124.899467,124.982101 124.904663,123.857224 
	C124.990028,122.228798 125.033974,121.043312 125.385902,120.005348 
	C126.742783,121.493919 127.791679,122.834976 128.851151,124.510635 
	C129.121368,125.676788 129.381012,126.508339 129.705261,127.707596 
	C131.085602,130.797256 132.401352,133.519241 133.701950,136.579254 
	C134.055374,137.967346 134.423935,139.017365 134.795349,140.441437 
	C135.857101,141.144470 136.916000,141.473450 138.235199,141.862640 
	C138.671356,141.894409 138.847198,141.865936 139.482666,141.925690 
	C145.983841,142.013931 152.025391,142.013931 158.947861,142.013931 
	C158.081406,140.151749 157.580093,139.074341 157.195435,137.706726 
	C156.214935,134.940201 155.117783,132.463882 154.060181,129.627106 
	C153.464767,128.692780 152.829803,128.118912 152.186935,127.166313 
	C149.200699,118.445038 146.222351,110.102493 143.685822,101.842545 
	C144.422180,101.957748 144.716736,101.990356 145.158752,102.315971 
	C147.237534,104.412666 149.168869,106.216354 151.150055,108.180771 
	C151.199905,108.341492 151.207916,108.677948 151.146606,109.059196 
	C151.059998,109.954315 151.034698,110.468185 150.829254,111.245903 
	C147.951706,115.628197 152.157883,116.212227 153.980423,118.016594 
z"/>
<path fill="#FCFBFA" opacity="1.000000" stroke="none" 
	d="
M102.997559,137.015533 
	C101.060593,140.332458 98.746269,142.404617 94.761902,139.793289 
	C92.804230,138.510254 91.781448,138.860306 90.917755,141.410355 
	C88.202827,149.426147 85.751144,150.424377 77.609558,149.099426 
	C74.551071,148.601700 71.246330,149.726562 68.043053,149.968842 
	C66.073524,150.117813 64.083542,149.996414 62.594017,149.996414 
	C60.772919,147.383316 59.039108,145.269821 57.742195,142.915619 
	C56.712242,141.046021 55.783905,138.746140 59.732635,138.230972 
	C60.681267,138.633759 61.124195,138.827560 61.548340,139.416565 
	C61.682098,140.571976 61.834637,141.332169 62.286102,142.370514 
	C66.583755,143.089844 70.575211,143.682373 74.585884,143.874954 
	C75.709984,143.928940 76.890610,142.805740 78.413269,142.161346 
	C79.523613,142.142044 80.265999,142.183914 81.263939,142.453735 
	C83.004890,142.494141 84.490273,142.306595 86.295074,141.895660 
	C86.732613,140.116653 86.850739,138.561050 87.020538,137.023315 
	C87.072205,137.041183 87.173599,137.000214 87.522957,136.810394 
	C92.914062,136.752213 97.955811,136.883881 102.997559,137.015533 
z"/>
<path fill="#D7F6FB" opacity="1.000000" stroke="none" 
	d="
M103.435501,137.008270 
	C97.955811,136.883881 92.914062,136.752213 87.400513,136.457809 
	C80.970024,133.193481 75.011330,130.091888 68.905380,126.681107 
	C66.272346,123.651619 65.645966,118.398445 60.019295,119.956696 
	C59.687614,113.680328 59.181622,107.405968 59.109535,101.126625 
	C59.080456,98.593155 60.000767,96.048798 60.888332,93.771080 
	C61.172459,96.520622 60.750725,99.043045 61.026321,101.486832 
	C61.315315,104.049454 62.273197,106.536644 62.935860,109.386200 
	C63.334278,110.474068 63.735588,111.232529 64.114609,112.246552 
	C64.356964,112.703384 64.621605,112.904663 64.893845,113.484985 
	C68.424957,125.491653 77.700768,131.358063 88.290962,133.623795 
	C97.293938,135.549957 106.980354,134.444336 116.360016,134.328094 
	C118.586029,134.300491 120.794594,132.865082 123.325821,132.034515 
	C124.134956,131.670380 124.629463,131.348999 125.123978,131.027603 
	C126.047203,131.450775 126.970428,131.873947 127.588371,132.640228 
	C126.519333,133.658020 125.755577,134.332672 124.991821,135.007339 
	C124.674561,135.107224 124.415535,135.289734 124.105301,135.768982 
	C122.169098,136.126877 120.342354,136.270676 117.812820,136.703491 
	C114.741348,136.995193 112.372658,136.997894 110.003967,137.000610 
	C107.960457,137.000748 105.916954,137.000885 103.435501,137.008270 
z"/>
<path fill="#F6FDFC" opacity="1.000000" stroke="none" 
	d="
M163.088730,66.983978 
	C169.874527,65.746086 170.049484,71.211906 171.412231,75.359146 
	C173.039551,74.504181 174.581619,73.694000 176.123688,72.883812 
	C176.576431,73.338707 177.029160,73.793594 177.481888,74.248482 
	C175.701706,77.029747 173.665421,79.688011 172.246307,82.642693 
	C171.505066,84.186005 171.507904,86.306023 171.792877,88.065445 
	C172.122864,90.102852 173.132126,92.030243 174.208099,95.005188 
	C171.310089,95.005188 169.095062,95.005188 166.433197,94.995728 
	C165.986389,94.986275 165.964386,94.963982 165.966156,94.528152 
	C166.226974,92.148659 166.824020,90.178741 166.675461,88.266754 
	C166.355698,84.151093 169.156845,79.579132 164.959686,75.791824 
	C164.878311,75.607475 164.891617,75.204689 164.946106,74.914391 
	C164.809052,74.091995 164.617493,73.559898 164.322174,72.698090 
	C164.108917,71.922020 163.999451,71.475655 164.139984,70.871658 
	C163.917465,69.822517 163.444931,68.931015 162.978531,68.030136 
	C162.984680,68.020760 162.959320,68.018738 162.994476,67.760399 
	C163.049316,67.329369 163.069031,67.156670 163.088730,66.983978 
z"/>
<path fill="#F0FAFB" opacity="1.000000" stroke="none" 
	d="
M124.058479,47.115517 
	C122.894005,45.209648 121.729530,43.303780 120.287521,41.200478 
	C123.540329,36.259743 125.949074,41.136272 128.777512,42.098698 
	C129.337952,42.289394 129.646805,43.219395 130.855133,44.894688 
	C131.255707,42.280449 131.472336,40.866760 131.729645,39.187511 
	C132.984283,39.350788 134.443237,40.012440 135.442520,39.589073 
	C139.782837,37.750195 141.198624,40.627323 142.269485,43.695217 
	C143.784119,48.034458 146.810257,49.904942 151.744461,50.296490 
	C152.848831,51.743507 153.413147,52.891804 153.589386,54.031830 
	C152.424164,54.041698 151.647049,54.059834 150.541183,54.034447 
	C149.182144,53.641094 148.151840,53.291267 147.002594,52.604782 
	C141.856232,48.489880 136.247131,46.636066 129.518066,47.019642 
	C127.427086,46.969967 125.742783,47.042740 124.058479,47.115517 
z"/>
<path fill="#F9E5E0" opacity="1.000000" stroke="none" 
	d="
M69.052643,126.990303 
	C75.011330,130.091888 80.970024,133.193481 87.051163,136.647644 
	C87.173599,137.000214 87.072205,137.041183 86.678055,136.994232 
	C85.832130,137.018799 85.380363,137.090302 84.580978,137.026642 
	C80.831810,135.899841 77.430252,134.908234 74.021606,133.953247 
	C74.014526,133.989883 74.079567,133.953278 74.011345,133.594604 
	C72.963676,132.851669 71.984222,132.467392 70.681763,131.922607 
	C67.784836,130.078888 66.401405,130.992584 65.561516,133.923004 
	C64.733955,135.264267 64.235733,136.492828 63.403603,137.751740 
	C62.568844,138.195190 62.067986,138.608261 61.567123,139.021347 
	C61.124195,138.827560 60.681267,138.633759 60.120041,138.219666 
	C60.015228,136.246002 60.028713,134.492615 60.360641,132.237762 
	C63.470276,130.154282 66.261459,128.572296 69.052643,126.990303 
z"/>
<path fill="#F6FDFC" opacity="1.000000" stroke="none" 
	d="
M153.977478,54.040096 
	C153.413147,52.891804 152.848831,51.743507 152.141815,50.298485 
	C161.242386,50.000683 164.732056,54.389050 162.957520,64.759964 
	C161.976944,64.947937 161.579941,64.892067 161.117157,64.485077 
	C159.990768,62.786118 158.930161,61.438278 157.921249,60.053642 
	C157.972961,60.016842 157.906631,60.125069 157.906830,59.772305 
	C157.207581,58.979225 156.508148,58.538910 155.611115,58.008289 
	C155.165451,57.746902 154.994247,57.518250 154.844849,56.957993 
	C154.496521,56.473682 154.203278,56.263412 153.954620,56.056683 
	C153.999191,56.060223 153.917358,56.096390 153.969849,55.755745 
	C154.007385,54.956764 153.992432,54.498432 153.977478,54.040096 
z"/>
<path fill="#F0FAFB" opacity="1.000000" stroke="none" 
	d="
M87.993393,56.983749 
	C88.002281,57.464703 88.011169,57.945656 87.867867,59.107819 
	C84.716469,61.857517 81.717262,63.925999 78.532516,66.093048 
	C78.128067,66.375015 77.957191,66.595634 77.637947,66.980522 
	C77.193504,67.305016 76.991432,67.541695 76.486572,67.858154 
	C74.104744,69.280670 72.071663,70.662666 70.038589,72.044655 
	C69.169701,68.251923 70.812973,65.134331 73.468910,62.926586 
	C74.981262,61.669441 77.572418,61.750946 79.628296,61.078407 
	C80.149467,60.907917 80.481461,60.159138 81.317932,59.294518 
	C83.821457,58.269886 85.907425,57.626820 87.993393,56.983749 
z"/>
<path fill="#FCFBFA" opacity="1.000000" stroke="none" 
	d="
M68.905380,126.681107 
	C66.261459,128.572296 63.470276,130.154282 60.362679,131.891602 
	C60.032574,128.315506 60.018887,124.584091 60.012245,120.404686 
	C65.645966,118.398445 66.272346,123.651619 68.905380,126.681107 
z"/>
<path fill="#F9F9F7" opacity="1.000000" stroke="none" 
	d="
M154.143036,117.707352 
	C152.157883,116.212227 147.951706,115.628197 151.217270,111.258163 
	C153.840591,110.332909 155.895782,109.659248 158.292572,108.989792 
	C159.089645,108.995972 159.545120,108.997940 160.000610,108.999908 
	C160.000610,111.435631 160.000610,113.871361 160.000610,116.174706 
	C157.793365,116.648872 156.049515,117.023499 154.143036,117.707352 
z"/>
<path fill="#3F8FAD" opacity="1.000000" stroke="none" 
	d="
M78.718048,65.994476 
	C81.717262,63.925999 84.716469,61.857517 87.878128,59.468449 
	C88.463982,59.123615 88.887390,59.099369 89.626663,59.117973 
	C89.835106,60.681046 89.727684,62.201275 88.994019,63.921631 
	C87.888603,64.762901 87.409431,65.404053 86.930267,66.045197 
	C86.930267,66.045197 86.777206,66.284470 86.487144,66.544235 
	C85.169678,67.262367 84.142273,67.720749 82.880249,67.874603 
	C81.394630,67.362236 80.143646,67.154404 78.898056,66.699554 
	C78.903458,66.452530 78.718048,65.994476 78.718048,65.994476 
z"/>
<path fill="#358DB4" opacity="1.000000" stroke="none" 
	d="
M62.938751,109.056801 
	C62.273197,106.536644 61.315315,104.049454 61.026321,101.486832 
	C60.750725,99.043045 61.172459,96.520622 61.217049,93.579468 
	C61.146454,93.126167 61.122860,93.105164 61.357613,92.870735 
	C61.681293,91.763786 61.770222,90.891273 61.859146,90.018753 
	C61.859150,90.018753 62.060799,89.618256 62.417854,89.302650 
	C63.777973,86.936531 64.781044,84.886009 65.853134,83.245499 
	C65.618927,85.768585 65.315689,87.881676 64.848083,90.349854 
	C64.102066,96.822235 63.520405,102.939514 62.938751,109.056801 
z"/>
<path fill="#F6FDFC" opacity="1.000000" stroke="none" 
	d="
M160.279144,108.763657 
	C159.545120,108.997940 159.089645,108.995972 158.445099,108.641136 
	C158.472107,106.804756 158.688187,105.321251 158.988083,103.577118 
	C159.406509,102.893341 159.741119,102.470169 160.445465,101.987091 
	C161.471008,100.180832 162.126846,98.434471 162.834213,96.424393 
	C163.133377,95.699165 163.380997,95.237640 164.015808,94.832703 
	C164.923462,94.914185 165.443924,94.939079 165.964386,94.963982 
	C165.964386,94.963982 165.986389,94.986275 165.997620,94.997772 
	C165.786041,98.332603 165.563232,101.655952 165.353516,104.784073 
	C163.824890,105.977219 162.191284,107.252312 160.279144,108.763657 
z"/>
<path fill="#CBF2F9" opacity="1.000000" stroke="none" 
	d="
M69.878250,72.348732 
	C72.071663,70.662666 74.104744,69.280670 76.524628,67.900925 
	C76.911438,67.903160 76.989067,67.987320 76.797958,68.255249 
	C75.977325,69.307602 75.347794,70.092033 74.450836,71.021889 
	C73.755844,72.033752 73.328285,72.900185 72.583679,73.840820 
	C71.746811,74.491722 71.226974,75.068443 70.701294,75.678848 
	C70.695442,75.712524 70.632683,75.739624 70.324814,75.821762 
	C69.612129,76.884789 69.207306,77.865685 68.804810,78.890022 
	C68.807129,78.933464 68.851868,78.858841 68.576981,79.015411 
	C67.622215,79.810379 66.942337,80.448776 65.954300,81.064735 
	C65.440643,81.028320 65.235138,81.014359 65.029633,81.000389 
	C64.179810,76.862877 67.358658,74.988007 69.878250,72.348732 
z"/>
<path fill="#FBF4F2" opacity="1.000000" stroke="none" 
	d="
M88.032822,56.621513 
	C85.907425,57.626820 83.821457,58.269886 81.369881,58.952599 
	C81.004272,56.572308 81.004272,54.152374 81.004272,51.732445 
	C82.492744,55.001820 89.274414,49.823277 88.032822,56.621513 
z"/>
<path fill="#E2F8FA" opacity="1.000000" stroke="none" 
	d="
M64.648621,81.008987 
	C65.235138,81.014359 65.440643,81.028320 65.865707,81.357712 
	C65.997314,82.069328 65.909370,82.465508 65.810104,82.862785 
	C65.798798,82.863876 65.784111,82.835495 65.784111,82.835495 
	C64.781044,84.886009 63.777973,86.936531 62.429729,89.078766 
	C61.459400,87.191818 60.834251,85.213165 60.015442,82.621567 
	C61.402431,82.098373 62.835022,81.557976 64.648621,81.008987 
z"/>
<path fill="#FCFBFA" opacity="1.000000" stroke="none" 
	d="
M110.047852,137.369324 
	C112.372658,136.997894 114.741348,136.995193 117.553879,136.989746 
	C115.653305,140.299698 113.143265,141.868912 110.047852,137.369324 
z"/>
<path fill="#CBF2F9" opacity="1.000000" stroke="none" 
	d="
M161.182938,64.836197 
	C161.579941,64.892067 161.976944,64.947937 162.674713,65.005325 
	C162.988907,65.447075 163.002335,65.887314 163.052246,66.655762 
	C163.069031,67.156670 163.049316,67.329369 162.683105,67.694260 
	C161.566284,67.539680 160.795990,67.192902 160.011505,66.652130 
	C159.997330,66.458145 159.976456,66.068810 160.176300,65.967865 
	C160.649811,65.697960 160.803802,65.453621 160.924347,65.059517 
	C161.010590,64.985138 161.182938,64.836197 161.182938,64.836197 
z"/>
<path fill="#FBF4F2" opacity="1.000000" stroke="none" 
	d="
M86.367325,49.398727 
	C86.735733,49.806438 86.827019,50.310829 86.918304,50.815220 
	C86.286186,50.784363 85.654076,50.753506 85.021965,50.722649 
	C85.378044,50.313568 85.734131,49.904488 86.367325,49.398727 
z"/>
<path fill="#D7F6FB" opacity="1.000000" stroke="none" 
	d="
M61.608177,90.240387 
	C61.770222,90.891273 61.681293,91.763786 61.346165,92.862106 
	C61.185711,92.212608 61.271458,91.337311 61.608177,90.240387 
z"/>
<path fill="#EDECEC" opacity="1.000000" stroke="none" 
	d="
M58.962582,163.007629 
	C60.429649,162.661087 61.896053,162.015762 63.363884,162.012512 
	C88.269890,161.957169 113.176071,161.981552 138.537872,162.479263 
	C138.625839,164.994003 138.258118,167.017792 137.491089,168.975815 
	C132.300476,168.317093 127.428993,166.968582 122.753273,167.464767 
	C120.568192,167.696640 115.794617,168.073730 116.862495,174.129166 
	C117.553207,178.045898 114.351555,182.649033 112.894119,186.944565 
	C110.816994,187.307907 108.741196,187.977585 106.662544,187.986511 
	C88.748466,188.063614 70.833878,188.021561 52.461895,187.600739 
	C51.999409,186.514542 51.994469,185.842667 52.404053,185.098846 
	C55.545650,184.665024 58.272720,184.303131 61.406628,184.055573 
	C65.664497,184.323624 69.515526,184.477325 73.835770,184.713531 
	C75.253578,184.838867 76.202187,184.881699 77.578903,184.960220 
	C80.680717,184.327103 84.445747,184.495590 85.759445,182.783356 
	C87.509087,180.502899 87.654587,176.782181 87.895546,173.634705 
	C88.033401,171.833984 86.993568,169.943130 86.483971,168.092850 
	C84.620041,168.713867 82.756104,169.334885 80.552185,169.871765 
	C77.692810,165.227081 77.692810,165.227081 74.658646,167.979645 
	C72.673050,168.719711 71.005486,169.330765 69.276474,169.964325 
	C68.642738,179.343307 67.663368,181.018005 62.049797,181.538528 
	C61.523998,178.778519 61.161720,176.385986 60.851444,173.597565 
	C60.256489,169.803650 59.609535,166.405640 58.962582,163.007629 
M106.966614,167.506592 
	C106.307884,167.342590 105.649155,167.178604 104.236343,166.924408 
	C102.154007,167.214676 100.071678,167.504944 97.342873,167.959274 
	C96.898285,167.963776 96.453705,167.968277 95.756119,167.411453 
	C95.250328,167.947784 94.744537,168.484100 93.939003,169.731552 
	C94.094994,170.477615 94.250977,171.223679 94.201828,172.633530 
	C94.211586,173.095230 94.221336,173.556915 93.836952,174.667084 
	C93.119820,175.886749 92.067642,177.023773 91.742981,178.340225 
	C90.259567,184.355240 91.757996,185.764343 97.874901,184.786758 
	C100.140831,184.424622 102.504517,184.674210 105.672112,184.791107 
	C110.951515,183.752853 110.951515,183.752853 110.077179,180.486099 
	C110.077179,180.486099 110.150345,180.055969 110.841431,179.691208 
	C111.639877,175.958908 112.438324,172.226624 113.318916,168.110352 
	C110.897247,168.110352 108.967682,168.110352 106.966614,167.506592 
M134.261871,163.815491 
	C134.376312,163.973053 134.490738,164.130600 134.605179,164.288162 
	C134.582031,164.068985 134.558899,163.849823 134.261871,163.815491 
z"/>
<path fill="#FAFAFA" opacity="1.000000" stroke="none" 
	d="
M157.252533,162.262436 
	C172.351181,162.262436 187.449829,162.262436 202.778839,162.262436 
	C202.778839,170.728027 202.778839,179.127426 202.778839,187.994507 
	C183.110382,187.994507 163.523560,187.994507 143.467743,187.593079 
	C143.003525,186.524429 143.008301,185.857224 143.373901,185.013367 
	C147.477798,184.432877 151.220886,184.029053 155.438751,183.650345 
	C157.936935,184.029343 159.960312,184.383194 162.345306,184.823181 
	C164.139435,184.613052 165.571915,184.316803 167.096924,184.294678 
	C167.608917,185.132462 168.028427,185.696152 168.376999,186.164536 
	C169.052567,185.298431 169.587875,184.612152 170.508102,183.960388 
	C173.247879,183.956070 175.602753,183.917252 178.168060,184.164825 
	C179.061691,184.551636 179.744873,184.652084 180.845337,184.814667 
	C184.008148,184.876831 186.753677,184.876831 188.340973,184.876831 
	C190.127228,179.881012 191.446838,176.129044 192.810959,172.393311 
	C194.038605,169.031342 192.696045,166.913742 189.138290,166.815567 
	C187.815384,166.779083 186.485748,166.986069 184.845901,166.941010 
	C183.351929,166.877213 182.171219,166.954453 180.652817,166.964905 
	C179.859451,166.842560 179.403793,166.786987 178.743927,166.508499 
	C177.690918,166.530609 176.842117,166.775650 175.749405,167.014099 
	C175.505493,167.007507 175.017487,167.006927 174.634766,166.981369 
	C173.229507,166.949936 172.206985,166.944061 170.750885,166.877106 
	C168.580368,166.891785 166.843430,166.967529 164.787720,167.029388 
	C163.973404,167.596237 163.477905,168.176971 162.659698,168.848694 
	C161.861267,170.636292 161.385544,172.332886 160.616180,174.139008 
	C159.543991,174.508301 158.765472,174.768082 157.993057,174.771149 
	C158.004990,174.343582 158.010818,174.172714 158.036789,173.604904 
	C158.028839,172.413254 158.000717,171.618530 157.975098,170.674713 
	C157.931610,170.144760 157.885620,169.763931 157.900085,169.062134 
	C157.627975,167.828857 157.295410,166.916565 157.128235,165.637558 
	C157.279938,164.268051 157.266235,163.265244 157.252533,162.262436 
M180.598175,164.524017 
	C180.598175,164.524017 180.475784,164.602325 180.598175,164.524017 
z"/>
<path fill="#F7F7F6" opacity="1.000000" stroke="none" 
	d="
M51.989529,185.170776 
	C51.994469,185.842667 51.999409,186.514542 51.998589,187.522339 
	C43.537922,187.858246 35.083019,187.858246 26.306896,187.858246 
	C26.306896,179.478851 26.306896,171.087448 26.306896,162.200485 
	C33.611477,162.200485 41.161480,162.200485 48.837780,162.971100 
	C46.534195,172.253601 40.140091,177.950699 33.319359,185.104111 
	C37.628090,184.632126 40.718620,184.293594 42.336224,184.116394 
	C43.546124,181.629333 44.489964,178.540497 45.117847,178.603439 
	C47.454708,178.837708 49.687748,180.107574 51.668835,181.200195 
	C51.581783,182.664719 51.785656,183.917755 51.989529,185.170776 
z"/>
<path fill="#1F1B1A" opacity="1.000000" stroke="none" 
	d="
M113.193489,187.092560 
	C114.351555,182.649033 117.553207,178.045898 116.862495,174.129166 
	C115.794617,168.073730 120.568192,167.696640 122.753273,167.464767 
	C127.428993,166.968582 132.300476,168.317093 137.531281,169.409088 
	C137.947388,171.931000 137.924011,173.953888 137.647049,176.197235 
	C136.641800,177.615509 135.890152,178.813309 134.913010,180.174042 
	C134.463913,180.628723 134.240311,180.920471 133.650375,181.266357 
	C131.510803,181.885681 129.737534,182.450882 127.966667,182.604156 
	C128.448700,178.600311 128.928329,175.008423 129.547867,170.368866 
	C124.359940,173.896088 123.255447,178.088120 124.900696,183.046722 
	C124.399857,183.621262 124.147362,184.085434 123.848145,184.687683 
	C123.801422,184.825790 124.011452,185.028046 123.635605,184.878265 
	C122.728516,184.796265 122.197258,184.864059 121.270203,184.947556 
	C118.886436,185.326279 115.806595,183.887787 116.030045,187.899399 
	C115.184311,187.679794 114.338585,187.460175 113.193489,187.092560 
M120.840446,179.046616 
	C120.587631,179.198334 120.201813,179.301666 120.123520,179.516876 
	C120.059265,179.693466 120.360695,180.003098 120.500023,180.253769 
	C120.640099,180.002792 120.780174,179.751816 120.840446,179.046616 
z"/>
<path fill="#1B1A17" opacity="1.000000" stroke="none" 
	d="
M51.959759,180.988708 
	C49.687748,180.107574 47.454708,178.837708 45.117847,178.603439 
	C44.489964,178.540497 43.546124,181.629333 42.336224,184.116394 
	C40.718620,184.293594 37.628090,184.632126 33.319359,185.104111 
	C40.140091,177.950699 46.534195,172.253601 49.052910,163.361633 
	C52.159752,162.953186 55.177750,162.924820 58.579166,162.952042 
	C59.609535,166.405640 60.256489,169.803650 60.486744,173.591705 
	C59.585648,173.899185 59.079891,173.879333 58.620655,173.722916 
	C56.874294,173.128128 55.142967,172.489212 53.406021,171.866791 
	C53.456043,173.686264 53.716671,175.533127 53.484871,177.315948 
	C53.319889,178.584839 52.491871,179.767548 51.959759,180.988708 
M54.638897,169.048767 
	C55.386192,168.852539 56.133488,168.656311 56.880779,168.460068 
	C56.344597,167.758850 55.808411,167.057632 55.272228,166.356400 
	C54.847641,167.237198 54.423054,168.117981 53.720009,169.107086 
	C53.813732,169.071869 53.907459,169.036652 54.638897,169.048767 
M52.161716,165.955688 
	C52.414978,165.804123 52.800999,165.701202 52.879929,165.485764 
	C52.944302,165.310074 52.641518,164.999847 52.501530,164.749283 
	C52.361301,165.000076 52.221073,165.250854 52.161716,165.955688 
z"/>
<path fill="#FAFAFA" opacity="1.000000" stroke="none" 
	d="
M137.900635,175.976776 
	C137.924011,173.953888 137.947388,171.931000 137.930588,169.474854 
	C138.258118,167.017792 138.625839,164.994003 139.001495,162.556610 
	C144.789551,162.102295 150.569672,162.061584 156.463943,162.550446 
	C156.389435,164.053543 156.200790,165.027069 155.986862,166.304581 
	C155.946854,166.811371 155.932144,167.014191 155.477600,167.106628 
	C152.027328,166.998337 149.016891,167.000427 145.649536,166.990662 
	C144.521194,167.893021 143.749756,168.807236 142.649445,169.846939 
	C141.883850,170.972748 141.447144,171.973068 141.001068,173.355103 
	C140.999985,174.500443 141.008270,175.264053 141.009674,176.012436 
	C141.002762,175.997208 141.029739,176.018631 140.638794,176.004303 
	C139.465439,175.985596 138.683044,175.981186 137.900635,175.976776 
M143.049103,165.155853 
	C143.200531,165.408783 143.303085,165.792831 143.518829,165.873260 
	C143.692444,165.938019 144.003006,165.635529 144.252808,165.495972 
	C144.002655,165.355865 143.752502,165.215759 143.049103,165.155853 
M147.483826,164.596176 
	C147.483826,164.596176 147.414230,164.480530 147.483826,164.596176 
z"/>
<path fill="#F9F9F7" opacity="1.000000" stroke="none" 
	d="
M134.016693,181.212234 
	C134.240311,180.920471 134.463913,180.628723 135.214874,180.182281 
	C136.144592,180.015076 136.546967,180.002548 136.963562,180.365585 
	C137.298340,181.912231 137.618866,183.083328 137.956436,184.613678 
	C137.979355,185.931458 137.985229,186.889969 137.991119,187.848480 
	C135.293015,187.898575 132.594910,187.948654 129.454727,187.566330 
	C129.923599,186.163025 130.874527,185.225967 131.733978,184.211441 
	C132.544937,183.254105 133.259644,182.215225 134.016693,181.212234 
z"/>
<path fill="#EEEDEC" opacity="1.000000" stroke="none" 
	d="
M133.650375,181.266357 
	C133.259644,182.215225 132.544937,183.254105 131.733978,184.211441 
	C130.874527,185.225967 129.923599,186.163025 129.010406,187.497681 
	C127.611053,187.914566 126.213936,187.967697 124.410255,187.584839 
	C124.006287,186.441910 124.008865,185.734985 124.011452,185.028046 
	C124.011452,185.028046 123.801422,184.825790 124.171265,184.851837 
	C125.007942,184.256256 125.474762,183.634644 126.278656,183.003113 
	C127.065239,183.000824 127.514763,183.008453 127.964279,183.016083 
	C129.737534,182.450882 131.510803,181.885681 133.650375,181.266357 
z"/>
<path fill="#272422" opacity="1.000000" stroke="none" 
	d="
M116.457306,187.920471 
	C115.806595,183.887787 118.886436,185.326279 121.242828,185.336121 
	C121.750893,186.467972 121.890511,187.226959 122.030121,187.985931 
	C120.314941,187.971146 118.599754,187.956345 116.457306,187.920471 
z"/>
<path fill="#EEEDEC" opacity="1.000000" stroke="none" 
	d="
M138.403992,187.929733 
	C137.985229,186.889969 137.979355,185.931458 138.338074,184.550568 
	C140.139465,184.482147 141.576263,184.836090 143.013062,185.190018 
	C143.008301,185.857224 143.003525,186.524429 143.004044,187.525177 
	C141.611847,187.909485 140.214355,187.960220 138.403992,187.929733 
z"/>
<path fill="#F9F9F7" opacity="1.000000" stroke="none" 
	d="
M122.359360,187.995575 
	C121.890511,187.226959 121.750893,186.467972 121.638641,185.320435 
	C122.197258,184.864059 122.728516,184.796265 123.635605,184.878265 
	C124.008865,185.734985 124.006287,186.441910 123.997803,187.502274 
	C123.557465,187.905533 123.123024,187.955368 122.359360,187.995575 
z"/>
<path fill="#EEEDEC" opacity="1.000000" stroke="none" 
	d="
M156.012146,166.000610 
	C156.200790,165.027069 156.389435,164.053543 156.924438,162.719711 
	C157.270798,162.359421 157.234421,162.358322 157.243469,162.310379 
	C157.266235,163.265244 157.279938,164.268051 156.890808,165.636261 
	C156.487961,166.001648 156.012146,166.000610 156.012146,166.000610 
z"/>
<path fill="#F4F0EE" opacity="1.000000" stroke="none" 
	d="
M125.077911,119.857834 
	C125.033974,121.043312 124.990028,122.228798 124.596062,123.687805 
	C122.841827,121.622887 121.437622,119.284431 120.023636,116.963989 
	C120.013855,116.982018 120.050911,116.975723 120.044952,116.591812 
	C117.893799,113.484596 114.765671,113.732468 111.480209,116.862373 
	C109.690117,117.088158 108.320847,117.304314 106.550522,117.451965 
	C98.801384,117.200684 91.453285,117.017899 84.059181,116.564270 
	C83.991043,115.927788 83.968903,115.562164 83.803703,114.901222 
	C83.049835,114.470039 82.439018,114.334175 81.840019,114.229050 
	C81.851830,114.259796 81.787003,114.271523 81.817398,113.904251 
	C80.235023,112.690224 78.622253,111.843475 77.005013,110.998657 
	C77.000549,111.000580 77.002563,110.992088 76.968033,110.638107 
	C75.296486,105.191505 73.659462,100.098892 72.022446,95.006279 
	C73.409630,97.618874 74.796822,100.231461 76.529793,103.329254 
	C78.118385,105.629753 79.015320,108.512634 80.672333,109.049477 
	C84.766411,110.375877 89.213905,110.596695 93.509857,111.318443 
	C98.741959,112.197464 100.033714,109.714508 99.029877,104.755295 
	C102.120636,98.306107 105.093681,92.204720 108.388626,85.959511 
	C109.555145,85.173325 110.399788,84.530960 111.295090,83.850067 
	C114.631332,91.916428 117.885094,99.589500 120.967270,107.330887 
	C122.199829,110.426666 123.054192,113.673019 124.074341,117.158737 
	C124.360306,117.971893 124.652618,118.477142 124.994362,119.198792 
	C125.043793,119.415192 125.077911,119.857834 125.077911,119.857834 
z"/>
<path fill="#AF4740" opacity="1.000000" stroke="none" 
	d="
M80.338486,96.079224 
	C83.958679,85.943047 87.383369,75.731171 91.268524,65.697578 
	C93.814156,59.123367 96.929779,52.760105 100.028580,46.418900 
	C100.583153,45.284042 102.248161,44.114891 103.493568,44.003601 
	C107.115974,43.679909 110.810173,44.147930 114.429939,43.809883 
	C118.156128,43.461895 120.794899,44.461834 122.571457,48.311440 
	C122.928505,48.581036 122.991257,48.792427 122.893303,49.187912 
	C125.577606,57.531921 128.335480,65.489212 131.187073,73.412788 
	C131.422501,74.066956 132.293518,74.492401 132.902725,75.413681 
	C133.673767,78.815971 134.411316,81.828712 134.839951,84.698898 
	C133.679535,83.148788 132.612015,81.826126 132.018906,80.317017 
	C130.518631,76.499649 129.409241,72.523567 127.817589,68.748375 
	C125.399338,63.012657 121.938354,57.595512 120.372215,51.659950 
	C119.122871,46.925003 116.436569,46.589943 112.874809,46.578701 
	C110.420456,46.570953 107.951744,47.056549 105.513817,46.911659 
	C102.391373,46.726086 101.120377,48.388336 100.111115,50.978031 
	C95.810364,62.013432 91.388542,73.001648 86.774178,84.016113 
	C86.390900,84.362526 86.244362,84.699921 86.060600,85.408600 
	C85.316704,87.524078 84.610039,89.268265 83.661522,91.222198 
	C83.273941,92.265556 83.128204,93.099174 82.752243,94.114548 
	C82.036423,94.904861 81.550827,95.513412 80.883377,96.114159 
	C80.701523,96.106346 80.338478,96.079224 80.338486,96.079224 
z"/>
<path fill="#DCF4F7" opacity="1.000000" stroke="none" 
	d="
M72.017807,94.671539 
	C73.659462,100.098892 75.296486,105.191505 76.608749,110.614990 
	C74.219246,109.304939 72.154495,107.664017 70.060303,105.668289 
	C69.655106,104.206261 69.279358,103.099045 68.950836,101.730858 
	C68.964890,101.296219 68.931732,101.122543 69.107468,100.588409 
	C69.538055,97.293564 69.450317,94.294197 70.049904,91.439178 
	C71.095650,86.459686 70.568245,80.714531 76.131432,77.626114 
	C76.333366,77.723610 76.778442,77.778625 76.858688,77.859512 
	C76.938927,77.940399 77.097961,78.103592 77.097961,78.103592 
	C76.421478,81.469162 75.744987,84.834732 74.634293,88.606293 
	C73.474312,90.340851 72.748520,91.669418 72.022728,92.997986 
	C72.019547,93.444260 72.016357,93.890526 72.017807,94.671539 
z"/>
<path fill="#A63D39" opacity="1.000000" stroke="none" 
	d="
M79.967712,96.190887 
	C80.338478,96.079224 80.701523,96.106346 80.871643,96.477623 
	C81.006561,97.580650 80.971359,98.312401 80.740639,99.139114 
	C80.302673,99.414207 80.143509,99.650475 79.831192,100.125916 
	C79.415237,100.867203 79.235703,101.425438 79.010117,102.317505 
	C79.317696,104.081619 79.671318,105.511902 80.277100,106.963928 
	C80.696770,107.005768 80.864296,107.025871 81.151337,107.306557 
	C81.864449,108.024162 82.458046,108.481178 83.473389,108.954636 
	C86.005051,109.309372 88.104179,109.763901 90.227203,109.960861 
	C94.187065,110.328255 97.929436,110.134247 98.912170,105.103088 
	C100.033714,109.714508 98.741959,112.197464 93.509857,111.318443 
	C89.213905,110.596695 84.766411,110.375877 80.672333,109.049477 
	C79.015320,108.512634 78.118385,105.629753 76.885147,103.408981 
	C77.795448,100.769852 78.696198,98.536201 79.967712,96.190887 
z"/>
<path fill="#DCF4F7" opacity="1.000000" stroke="none" 
	d="
M83.114868,68.179131 
	C84.142273,67.720749 85.169678,67.262367 86.516922,66.683090 
	C83.290749,69.952713 84.566368,77.124664 77.472099,78.064713 
	C77.097961,78.103592 76.938927,77.940399 76.868668,77.523117 
	C76.918556,76.446304 77.038696,75.786774 77.170456,75.128487 
	C77.182083,75.129738 77.198021,75.158035 77.497650,75.006332 
	C79.569809,72.629471 81.342339,70.404305 83.114868,68.179131 
z"/>
<path fill="#3B85A2" opacity="1.000000" stroke="none" 
	d="
M122.991257,48.792427 
	C122.991257,48.792427 122.928505,48.581036 122.925140,48.470909 
	C123.228043,48.125271 123.534309,47.889763 123.949524,47.384884 
	C125.742783,47.042740 127.427086,46.969967 129.283844,47.262398 
	C128.382141,48.066738 127.307961,48.505878 124.998016,49.450222 
	C127.460007,50.354641 128.696609,50.677376 129.754562,51.302460 
	C129.981033,51.436275 129.559937,52.666061 129.125214,53.407486 
	C128.197708,53.510044 127.582130,53.596073 126.681122,53.463211 
	C125.260880,51.760357 124.126068,50.276390 122.991257,48.792427 
z"/>
<path fill="#F4F0EE" opacity="1.000000" stroke="none" 
	d="
M72.387955,93.002693 
	C72.748520,91.669418 73.474312,90.340851 74.578850,89.000160 
	C75.634529,90.310631 76.311455,91.633217 77.295822,93.556503 
	C75.363861,93.322975 74.058525,93.165192 72.387955,93.002693 
z"/>
<path fill="#DCF4F7" opacity="1.000000" stroke="none" 
	d="
M87.244446,66.006454 
	C87.409431,65.404053 87.888603,64.762901 88.693359,64.159599 
	C88.532181,64.787529 88.045403,65.377617 87.244446,66.006454 
z"/>
<path fill="#1F8FC3" opacity="1.000000" stroke="none" 
	d="
M123.011192,132.077271 
	C120.794594,132.865082 118.586029,134.300491 116.360016,134.328094 
	C106.980354,134.444336 97.293938,135.549957 88.290962,133.623795 
	C77.700768,131.358063 68.424957,125.491653 65.254028,113.487480 
	C66.770538,114.376137 67.830101,115.760849 69.117348,116.884811 
	C73.517807,120.727089 77.487572,125.488731 82.556366,128.049301 
	C92.582603,133.114182 103.683723,133.552597 114.644691,131.669495 
	C117.254234,131.221176 121.018250,130.118118 121.421234,125.956085 
	C122.774803,126.339890 123.803246,126.677711 124.831688,127.015533 
	C124.857697,127.181549 124.883698,127.347565 124.575798,127.936226 
	C123.831657,129.598343 123.421425,130.837799 123.011192,132.077271 
z"/>
<path fill="#C03731" opacity="1.000000" stroke="none" 
	d="
M124.080704,116.850838 
	C123.054192,113.673019 122.199829,110.426666 120.967270,107.330887 
	C117.885094,99.589500 114.631332,91.916428 111.295090,83.850067 
	C110.399788,84.530960 109.555145,85.173325 108.248367,85.634918 
	C107.964333,83.672440 108.142426,81.890732 108.379044,79.523613 
	C109.835701,80.328911 110.623177,80.489883 110.882080,80.948959 
	C114.226730,86.879517 117.791199,92.712265 120.708923,98.850739 
	C124.258163,106.317848 127.246651,114.051491 130.674454,122.133720 
	C130.708008,122.095695 129.954010,122.950294 129.103470,123.891220 
	C129.006927,123.977531 128.840576,124.176041 128.840576,124.176041 
	C127.791679,122.834976 126.742783,121.493919 125.385895,120.005348 
	C125.077911,119.857834 125.043793,119.415192 125.111557,118.877930 
	C124.813118,117.844055 124.446907,117.347443 124.080704,116.850838 
z"/>
<path fill="#AF4740" opacity="1.000000" stroke="none" 
	d="
M143.244019,101.759949 
	C146.222351,110.102493 149.200699,118.445038 152.212677,127.492195 
	C152.837769,128.793716 153.429199,129.390640 154.020630,129.987564 
	C155.117783,132.463882 156.214935,134.940201 157.001709,137.774200 
	C156.163589,138.426910 155.635864,138.721954 155.061035,138.639954 
	C153.760941,135.592300 152.329559,132.989273 151.287415,130.238770 
	C147.776733,120.973083 144.350937,111.674088 141.015961,102.343773 
	C140.155991,99.937790 139.747864,97.370308 139.438019,94.888550 
	C140.147583,94.956398 140.551315,95.012718 140.980072,95.043625 
	C141.005096,95.018211 140.936401,95.037331 140.959351,95.418228 
	C141.952164,97.430489 142.922028,99.061844 144.057938,100.754692 
	C144.223984,100.816177 144.578110,100.819740 144.746826,100.701538 
	C144.915527,100.583328 144.661133,100.259254 144.254456,100.299179 
	C143.646515,100.812714 143.445267,101.286331 143.244019,101.759949 
z"/>
<path fill="#BEE8F3" opacity="1.000000" stroke="none" 
	d="
M158.904266,103.837738 
	C158.688187,105.321251 158.472107,106.804756 158.103500,108.636932 
	C155.895782,109.659248 153.840591,110.332909 151.397400,110.994308 
	C151.034698,110.468185 151.059998,109.954315 151.348663,108.916710 
	C151.759827,107.913910 151.907608,107.434853 152.360809,106.897568 
	C153.440140,106.556732 154.214081,106.274109 155.348419,106.066528 
	C156.773987,105.373627 157.839127,104.605682 158.904266,103.837738 
z"/>
<path fill="#CFF5FA" opacity="1.000000" stroke="none" 
	d="
M144.661133,100.259254 
	C144.661133,100.259254 144.915527,100.583328 144.903107,100.245628 
	C144.924606,99.593895 144.958511,99.279854 144.992752,98.642525 
	C144.974609,97.888977 144.956161,97.458725 145.235687,97.008026 
	C145.732681,96.981377 145.931686,96.975182 146.376877,97.211273 
	C148.065918,99.668770 149.508804,101.883980 151.058441,104.346024 
	C151.426773,105.034782 151.688354,105.476692 151.685822,106.074554 
	C151.314545,106.827011 151.207367,107.423531 151.100204,108.020042 
	C149.168869,106.216354 147.237534,104.412666 145.110901,101.867004 
	C144.830795,100.836441 144.745956,100.547852 144.661133,100.259254 
z"/>
<path fill="#A04D48" opacity="1.000000" stroke="none" 
	d="
M155.108124,139.016968 
	C155.635864,138.721954 156.163589,138.426910 156.885040,138.064407 
	C157.580093,139.074341 158.081406,140.151749 158.947861,142.013931 
	C152.025391,142.013931 145.983841,142.013931 139.606232,141.725098 
	C139.487762,141.198837 139.749542,141.029938 140.362915,140.924576 
	C141.081055,140.920212 141.491791,140.920822 142.194168,140.942810 
	C142.680557,140.955841 142.875320,140.947510 143.512787,140.933746 
	C146.611496,140.932571 149.267502,140.936783 152.267426,140.962677 
	C153.400696,140.667099 154.190018,140.349869 155.002594,139.777573 
	C155.053268,139.354004 155.080704,139.185486 155.108124,139.016968 
z"/>
<path fill="#4790AF" opacity="1.000000" stroke="none" 
	d="
M124.901810,126.680740 
	C123.803246,126.677711 122.774803,126.339890 121.400719,125.640167 
	C121.031136,124.854935 121.007195,124.431602 120.903557,123.778206 
	C120.651947,123.259270 120.412125,123.047142 120.092407,122.594772 
	C120.049309,121.855957 120.018219,121.434135 119.997269,120.605682 
	C120.016083,119.114685 120.024750,118.030327 120.033417,116.945969 
	C121.437622,119.284431 122.841827,121.622887 124.554626,124.130760 
	C124.899467,124.982101 124.935699,125.664032 124.901810,126.680740 
z"/>
<path fill="#AF4740" opacity="1.000000" stroke="none" 
	d="
M133.717087,136.241211 
	C132.401352,133.519241 131.085602,130.797256 129.827164,127.592804 
	C129.884460,127.110313 130.127823,126.880257 130.460602,126.991837 
	C131.922760,130.011185 133.052139,132.918945 134.066345,135.931366 
	C133.951141,136.036011 133.717087,136.241211 133.717087,136.241211 
z"/>
<path fill="#AF4740" opacity="1.000000" stroke="none" 
	d="
M134.792496,140.067413 
	C134.423935,139.017365 134.055374,137.967346 133.701950,136.579254 
	C133.717087,136.241211 133.951141,136.036011 134.394806,136.033203 
	C135.567596,137.344925 136.296738,138.659439 137.003494,139.999329 
	C136.981125,140.024704 136.938965,140.077637 136.581558,140.055817 
	C135.746933,140.045135 135.269714,140.056274 134.792496,140.067413 
z"/>
<path fill="#2A86AD" opacity="1.000000" stroke="none" 
	d="
M123.325821,132.034515 
	C123.421425,130.837799 123.831657,129.598343 124.533096,128.184631 
	C124.890289,128.764771 124.956276,129.519119 125.073120,130.650543 
	C124.629463,131.348999 124.134956,131.670380 123.325821,132.034515 
z"/>
<path fill="#FFFFFF" opacity="1.000000" stroke="none" 
	d="
M125.349632,135.001434 
	C125.755577,134.332672 126.519333,133.658020 127.638916,132.972519 
	C127.232300,133.639633 126.469872,134.317581 125.349632,135.001434 
z"/>
<path fill="#A04D48" opacity="1.000000" stroke="none" 
	d="
M134.795349,140.441452 
	C135.269714,140.056274 135.746933,140.045135 136.697876,140.278748 
	C137.439346,140.949799 137.707123,141.376099 137.974884,141.802414 
	C136.916000,141.473450 135.857101,141.144470 134.795349,140.441452 
z"/>
<path fill="#AF4740" opacity="1.000000" stroke="none" 
	d="
M138.235199,141.862640 
	C137.707123,141.376099 137.439346,140.949799 137.055267,140.300568 
	C136.938965,140.077637 136.981125,140.024704 137.337509,140.015717 
	C138.481094,140.314331 139.268311,140.621933 140.055511,140.929550 
	C139.749542,141.029938 139.487762,141.198837 139.146622,141.636856 
	C138.847198,141.865936 138.671356,141.894409 138.235199,141.862640 
z"/>
<path fill="#A04D48" opacity="1.000000" stroke="none" 
	d="
M154.060181,129.627106 
	C153.429199,129.390640 152.837769,128.793716 152.220581,127.870926 
	C152.829803,128.118912 153.464767,128.692780 154.060181,129.627106 
z"/>
<path fill="#AF4740" opacity="1.000000" stroke="none" 
	d="
M129.762573,127.225105 
	C129.381012,126.508339 129.121368,125.676788 128.851151,124.510635 
	C128.840576,124.176041 129.006927,123.977531 129.312561,124.147926 
	C129.788086,125.172302 129.957947,126.026276 130.127823,126.880257 
	C130.127823,126.880257 129.884460,127.110313 129.762573,127.225105 
z"/>
<path fill="#4790AF" opacity="1.000000" stroke="none" 
	d="
M151.150055,108.180771 
	C151.207367,107.423531 151.314545,106.827011 151.713928,106.333672 
	C152.022568,106.609833 152.038986,106.782814 152.055389,106.955788 
	C151.907608,107.434853 151.759827,107.913910 151.409973,108.535461 
	C151.207916,108.677948 151.199905,108.341492 151.150055,108.180771 
z"/>
<path fill="#F9F9F7" opacity="1.000000" stroke="none" 
	d="
M144.254456,100.299179 
	C144.745956,100.547852 144.830795,100.836441 144.963455,101.573997 
	C144.716736,101.990356 144.422180,101.957748 143.685822,101.842545 
	C143.445267,101.286331 143.646515,100.812714 144.254456,100.299179 
z"/>
<path fill="#9F5B56" opacity="1.000000" stroke="none" 
	d="
M61.548340,139.416565 
	C62.067986,138.608261 62.568844,138.195190 63.388435,138.074463 
	C64.155144,139.225266 64.603111,140.083694 65.417206,140.954834 
	C66.515945,140.965836 67.248558,140.964142 68.321663,140.984406 
	C69.116600,140.989471 69.571045,140.972565 70.438675,140.961075 
	C72.229195,140.962189 73.606537,140.957886 75.387199,140.977432 
	C76.867294,140.979858 77.944054,140.958435 79.341721,140.940155 
	C80.090492,140.939117 80.518349,140.934952 81.323563,140.955154 
	C82.776802,139.706940 83.852692,138.434372 84.928589,137.161804 
	C85.380363,137.090302 85.832130,137.018799 86.626389,136.976364 
	C86.850739,138.561050 86.732613,140.116653 85.884628,141.829422 
	C83.772636,142.066299 82.390511,142.146027 81.008377,142.225769 
	C80.265999,142.183914 79.523613,142.142044 77.949440,142.074554 
	C72.074158,142.063400 67.030670,142.077881 61.987179,142.092377 
	C61.834637,141.332169 61.682098,140.571976 61.548340,139.416565 
z"/>
<path fill="#FFE6E2" opacity="1.000000" stroke="none" 
	d="
M62.286102,142.370529 
	C67.030670,142.077881 72.074158,142.063400 77.581474,142.135712 
	C76.890610,142.805740 75.709984,143.928940 74.585884,143.874954 
	C70.575211,143.682373 66.583755,143.089844 62.286102,142.370529 
z"/>
<path fill="#FFE6E2" opacity="1.000000" stroke="none" 
	d="
M81.263939,142.453720 
	C82.390511,142.146027 83.772636,142.066299 85.565216,142.052811 
	C84.490273,142.306595 83.004890,142.494141 81.263939,142.453720 
z"/>
<path fill="#0793DA" opacity="1.000000" stroke="none" 
	d="
M119.987129,121.012321 
	C120.018219,121.434135 120.049309,121.855957 120.153481,122.836288 
	C120.397652,123.699371 120.649879,123.903862 120.983253,124.008263 
	C121.007195,124.431602 121.031136,124.854935 121.075592,125.594185 
	C121.018250,130.118118 117.254234,131.221176 114.644691,131.669495 
	C103.683723,133.552597 92.582603,133.114182 82.556366,128.049301 
	C77.487572,125.488731 73.517807,120.727089 69.117348,116.884811 
	C67.830101,115.760849 66.770538,114.376137 65.246429,113.108444 
	C64.621605,112.904663 64.356964,112.703384 64.443909,112.191154 
	C66.382393,110.215469 68.985298,108.937157 66.419907,105.920876 
	C66.121063,105.569511 68.022324,103.346916 68.903610,101.991829 
	C69.279358,103.099045 69.655106,104.206261 70.027344,106.026482 
	C72.559029,113.097893 77.526665,116.436821 83.965225,117.986969 
	C83.975304,118.011589 84.002388,118.057373 84.060905,118.397873 
	C86.076012,119.154564 88.032608,119.570763 90.450424,119.992920 
	C94.603462,120.015572 98.295258,120.032265 102.267761,120.325882 
	C104.983269,120.571014 107.910202,121.392189 109.750694,120.330307 
	C113.613914,118.101387 116.753510,117.944405 119.987129,121.012321 
z"/>
<path fill="#0E91D2" opacity="1.000000" stroke="none" 
	d="
M68.950836,101.730858 
	C68.022324,103.346916 66.121063,105.569511 66.419907,105.920876 
	C68.985298,108.937157 66.382393,110.215469 64.466194,111.935593 
	C63.735588,111.232529 63.334278,110.474068 62.935860,109.386200 
	C63.520405,102.939514 64.102066,96.822235 65.193642,90.405533 
	C66.378998,91.582359 67.250221,93.003868 67.681946,94.548233 
	C68.264526,96.632286 68.509003,98.810860 68.898567,100.948868 
	C68.931732,101.122543 68.964890,101.296219 68.950836,101.730858 
z"/>
<path fill="#2A88B3" opacity="1.000000" stroke="none" 
	d="
M160.025696,66.846123 
	C160.795990,67.192902 161.566284,67.539680 162.647949,67.952599 
	C162.959320,68.018738 162.984680,68.020760 162.985214,68.356812 
	C163.287155,69.471672 163.588562,70.250488 163.889969,71.029297 
	C163.999451,71.475655 164.108917,71.922020 164.216919,72.983505 
	C164.440826,74.133980 164.666229,74.669334 164.891617,75.204689 
	C164.891617,75.204689 164.878311,75.607475 164.899277,76.252182 
	C164.318314,81.302246 163.716400,85.707611 163.075699,89.692360 
	C162.033173,81.796539 161.029434,74.321327 160.025696,66.846123 
z"/>
<path fill="#CBF2F9" opacity="1.000000" stroke="none" 
	d="
M163.114471,90.112976 
	C163.716400,85.707611 164.318314,81.302246 164.980652,76.436523 
	C169.156845,79.579132 166.355698,84.151093 166.675461,88.266754 
	C166.824020,90.178741 166.226974,92.148659 165.966156,94.528152 
	C165.443924,94.939079 164.923462,94.914185 164.025238,94.480911 
	C163.455627,92.999016 163.263809,91.925507 163.090012,90.652512 
	C163.108032,90.453026 163.137024,90.053284 163.102692,90.056862 
	C163.068344,90.060440 163.114471,90.112976 163.114471,90.112976 
z"/>
<path fill="#CBF2F9" opacity="1.000000" stroke="none" 
	d="
M164.139984,70.871658 
	C163.588562,70.250488 163.287155,69.471672 162.979065,68.366180 
	C163.444931,68.931015 163.917465,69.822517 164.139984,70.871658 
z"/>
<path fill="#CBF2F9" opacity="1.000000" stroke="none" 
	d="
M164.946106,74.914391 
	C164.666229,74.669334 164.440826,74.133980 164.320679,73.313217 
	C164.617493,73.559898 164.809052,74.091995 164.946106,74.914391 
z"/>
<path fill="#268EBD" opacity="1.000000" stroke="none" 
	d="
M154.899933,57.232029 
	C154.994247,57.518250 155.165451,57.746902 155.623627,58.359749 
	C156.524689,59.242702 157.215652,59.683887 157.906631,60.125069 
	C157.906631,60.125069 157.972961,60.016842 157.897949,60.290581 
	C157.822952,60.564323 157.784180,61.039352 157.604050,61.152374 
	C157.207886,61.461826 157.060318,61.700584 156.616821,61.980209 
	C155.002792,61.495266 153.753143,61.011776 151.607498,60.181625 
	C153.436646,69.659775 155.012344,78.485390 150.995453,86.729279 
	C150.683502,85.962486 150.394302,85.487236 150.063690,84.591461 
	C150.338745,81.879425 151.167023,79.519562 150.871902,77.309738 
	C150.109421,71.600861 148.850922,65.958221 148.170074,60.201534 
	C149.312347,59.635452 150.075058,59.156967 150.837769,58.678474 
	C149.974167,57.774372 149.110550,56.870277 147.439377,55.120754 
	C147.576950,57.737942 147.641739,58.970413 147.357819,60.292595 
	C145.713165,59.538544 144.417221,58.694782 143.060394,57.869049 
	C142.999496,57.887074 143.122620,57.873077 142.933868,57.577675 
	C140.195999,55.929390 137.646896,54.576508 134.984192,52.933517 
	C134.570541,52.099007 134.270493,51.554607 134.027832,50.674171 
	C135.500839,50.297527 136.988144,49.958130 138.317474,50.277084 
	C141.293900,50.991234 144.191711,52.033058 147.121536,52.941437 
	C148.151840,53.291267 149.182144,53.641094 150.695343,54.316429 
	C152.091293,55.126755 153.004318,55.611572 153.917358,56.096390 
	C153.917358,56.096390 153.999191,56.060223 153.964172,56.351215 
	C154.252747,56.838814 154.576340,57.035423 154.899933,57.232029 
z"/>
<path fill="#328EB5" opacity="1.000000" stroke="none" 
	d="
M147.002594,52.604782 
	C144.191711,52.033058 141.293900,50.991234 138.317474,50.277084 
	C136.988144,49.958130 135.500839,50.297527 133.781631,50.849380 
	C133.312531,52.136528 133.147034,52.912434 132.625870,53.718224 
	C131.325851,53.629055 130.381500,53.510010 129.437149,53.390961 
	C129.559937,52.666061 129.981033,51.436275 129.754562,51.302460 
	C128.696609,50.677376 127.460007,50.354641 124.998016,49.450222 
	C127.307961,48.505878 128.382141,48.066738 129.690521,47.384842 
	C136.247131,46.636066 141.856232,48.489880 147.002594,52.604782 
z"/>
<path fill="#CBF2F9" opacity="1.000000" stroke="none" 
	d="
M153.969849,55.755745 
	C153.004318,55.611572 152.091293,55.126755 151.024078,54.359955 
	C151.647049,54.059834 152.424164,54.041698 153.589386,54.031830 
	C153.992432,54.498432 154.007385,54.956764 153.969849,55.755745 
z"/>
<path fill="#C82A24" opacity="1.000000" stroke="none" 
	d="
M67.981178,140.962448 
	C67.248558,140.964142 66.515945,140.965836 65.402901,140.553894 
	C65.311935,138.030273 65.601395,135.920288 65.890846,133.810303 
	C66.401405,130.992584 67.784836,130.078888 70.836487,132.203735 
	C72.236008,133.081345 73.157791,133.517319 74.079567,133.953278 
	C74.079567,133.953278 74.014526,133.989883 74.162254,134.280243 
	C76.156227,137.072388 81.595741,135.824936 80.946213,140.930801 
	C80.518349,140.934952 80.090492,140.939117 79.119400,140.694382 
	C77.378746,140.614853 76.181305,140.784225 74.983871,140.953583 
	C73.606537,140.957886 72.229195,140.962189 70.283096,140.745239 
	C69.136620,140.670135 68.558899,140.816284 67.981178,140.962448 
z"/>
<path fill="#AC3B36" opacity="1.000000" stroke="none" 
	d="
M81.323563,140.955154 
	C81.595741,135.824936 76.156227,137.072388 74.169342,134.243622 
	C77.430252,134.908234 80.831810,135.899841 84.580978,137.026627 
	C83.852692,138.434372 82.776802,139.706940 81.323563,140.955154 
z"/>
<path fill="#AC3B36" opacity="1.000000" stroke="none" 
	d="
M65.561516,133.923004 
	C65.601395,135.920288 65.311935,138.030273 65.036781,140.541199 
	C64.603111,140.083694 64.155144,139.225266 63.722336,138.044098 
	C64.235733,136.492828 64.733955,135.264267 65.561516,133.923004 
z"/>
<path fill="#AC3B36" opacity="1.000000" stroke="none" 
	d="
M74.011345,133.594604 
	C73.157791,133.517319 72.236008,133.081345 71.159500,132.364258 
	C71.984222,132.467392 72.963676,132.851669 74.011345,133.594604 
z"/>
<path fill="#CBF2F9" opacity="1.000000" stroke="none" 
	d="
M157.784180,61.039352 
	C157.784180,61.039352 157.822952,60.564323 157.846252,60.327381 
	C158.930161,61.438278 159.990768,62.786118 161.117157,64.485077 
	C161.182938,64.836197 161.010590,64.985138 160.720703,65.002609 
	C160.430832,65.020088 160.009415,64.982460 160.003540,64.990578 
	C159.997650,64.998695 160.016769,64.997551 159.966156,64.709114 
	C159.627274,64.167343 159.339005,63.914013 159.044037,63.412857 
	C158.746643,62.793030 158.455902,62.421024 158.100342,61.785130 
	C157.951721,61.360607 157.867950,61.199978 157.784180,61.039352 
z"/>
<path fill="#CBF2F9" opacity="1.000000" stroke="none" 
	d="
M157.906830,59.772308 
	C157.215652,59.683887 156.524689,59.242702 155.821198,58.450058 
	C156.508148,58.538910 157.207581,58.979225 157.906830,59.772308 
z"/>
<path fill="#CBF2F9" opacity="1.000000" stroke="none" 
	d="
M154.844849,56.957993 
	C154.576340,57.035423 154.252747,56.838814 153.919586,56.347675 
	C154.203278,56.263412 154.496521,56.473682 154.844849,56.957993 
z"/>
<path fill="#CBF2F9" opacity="1.000000" stroke="none" 
	d="
M78.532516,66.093048 
	C78.718048,65.994476 78.903458,66.452530 78.685852,66.733841 
	C78.468246,67.015144 78.039742,67.049492 77.989723,66.999092 
	C77.939705,66.948692 77.834358,66.853462 77.834358,66.853462 
	C77.957191,66.595634 78.128067,66.375015 78.532516,66.093048 
z"/>
<path fill="#CBF2F9" opacity="1.000000" stroke="none" 
	d="
M76.873383,67.860390 
	C76.991432,67.541695 77.193504,67.305016 77.637947,66.980522 
	C77.834358,66.853462 77.939705,66.948692 77.872269,67.212860 
	C77.590660,67.739433 77.318741,67.909538 76.989067,67.987320 
	C76.989067,67.987320 76.911438,67.903160 76.873383,67.860390 
z"/>
<path fill="#328EB5" opacity="1.000000" stroke="none" 
	d="
M76.797958,68.255249 
	C77.318741,67.909538 77.590660,67.739433 77.922287,67.263260 
	C78.039742,67.049492 78.468246,67.015144 78.680450,66.980858 
	C80.143646,67.154404 81.394630,67.362236 82.880249,67.874603 
	C81.342339,70.404305 79.569809,72.629471 77.429878,74.630028 
	C76.281075,73.229103 75.499664,72.052780 74.718262,70.876465 
	C75.347794,70.092033 75.977325,69.307602 76.797958,68.255249 
z"/>
<path fill="#2490C3" opacity="1.000000" stroke="none" 
	d="
M74.450836,71.021889 
	C75.499664,72.052780 76.281075,73.229103 77.130249,74.781723 
	C77.198021,75.158035 77.182083,75.129738 76.898743,75.098534 
	C76.386765,75.887764 76.158127,76.708191 75.929497,77.528625 
	C70.568245,80.714531 71.095650,86.459686 70.049904,91.439178 
	C69.450317,94.294197 69.538055,97.293564 69.107468,100.588409 
	C68.509003,98.810860 68.264526,96.632286 67.681946,94.548233 
	C67.250221,93.003868 66.378998,91.582359 65.358002,90.050438 
	C65.315689,87.881676 65.618927,85.768585 65.853134,83.245499 
	C65.784111,82.835495 65.798798,82.863876 66.187881,82.878311 
	C67.335274,81.548119 68.093575,80.203476 68.851868,78.858841 
	C68.851868,78.858841 68.807129,78.933464 69.186020,78.890854 
	C69.920837,77.812035 70.276756,76.775826 70.632683,75.739624 
	C70.632683,75.739624 70.695442,75.712524 71.062996,75.760498 
	C71.920601,75.127853 72.410660,74.447235 72.900719,73.766624 
	C73.328285,72.900185 73.755844,72.033752 74.450836,71.021889 
z"/>
<path fill="#358DB4" opacity="1.000000" stroke="none" 
	d="
M163.071976,90.851990 
	C163.263809,91.925507 163.455627,92.999016 163.638031,94.424324 
	C163.380997,95.237640 163.133377,95.699165 162.481155,96.500420 
	C161.409607,98.575775 160.742676,100.311386 160.075729,102.046997 
	C159.741119,102.470169 159.406509,102.893341 158.988083,103.577118 
	C157.839127,104.605682 156.773987,105.373627 155.480927,105.744492 
	C157.195648,101.239090 159.138321,97.130768 161.404587,92.962769 
	C162.176117,92.219391 162.624039,91.535690 163.071976,90.851990 
z"/>
<path fill="#BEE8F3" opacity="1.000000" stroke="none" 
	d="
M160.445465,101.987099 
	C160.742676,100.311386 161.409607,98.575775 162.429611,96.764130 
	C162.126846,98.434471 161.471008,100.180832 160.445465,101.987099 
z"/>
<path fill="#358DB4" opacity="1.000000" stroke="none" 
	d="
M68.576981,79.015411 
	C68.093575,80.203476 67.335274,81.548119 66.199196,82.877228 
	C65.909370,82.465508 65.997314,82.069328 66.173859,81.380157 
	C66.942337,80.448776 67.622215,79.810379 68.576981,79.015411 
z"/>
<path fill="#358DB4" opacity="1.000000" stroke="none" 
	d="
M70.324814,75.821762 
	C70.276756,76.775826 69.920837,77.812035 69.183701,78.847412 
	C69.207306,77.865685 69.612129,76.884789 70.324814,75.821762 
z"/>
<path fill="#358DB4" opacity="1.000000" stroke="none" 
	d="
M72.583679,73.840820 
	C72.410660,74.447235 71.920601,75.127853 71.068848,75.726822 
	C71.226974,75.068443 71.746811,74.491722 72.583679,73.840820 
z"/>
<path fill="#0A91D7" opacity="1.000000" stroke="none" 
	d="
M161.080994,93.022446 
	C159.138321,97.130768 157.195648,101.239090 155.120499,105.669449 
	C154.214081,106.274109 153.440140,106.556732 152.360809,106.897568 
	C152.038986,106.782814 152.022568,106.609833 151.978043,106.177719 
	C151.688354,105.476692 151.426773,105.034782 151.075684,103.936531 
	C149.386841,98.513336 148.085159,93.760536 150.935471,88.953148 
	C151.225204,88.464470 151.002914,87.672211 151.018219,87.020828 
	C155.012344,78.485390 153.436646,69.659775 151.607498,60.181625 
	C153.753143,61.011776 155.002792,61.495266 156.912628,62.002335 
	C157.770279,62.033615 157.967728,62.041321 158.165176,62.049023 
	C158.455902,62.421024 158.746643,62.793030 159.092499,63.708073 
	C159.437347,64.499924 159.727066,64.748741 160.016769,64.997551 
	C160.016769,64.997551 159.997650,64.998695 159.975998,65.261589 
	C159.961700,65.705925 159.969070,65.887367 159.976456,66.068810 
	C159.976456,66.068810 159.997330,66.458145 160.011505,66.652130 
	C161.029434,74.321327 162.033173,81.796539 163.075699,89.692360 
	C163.114471,90.112976 163.068344,90.060440 162.786987,90.159889 
	C162.030746,91.180374 161.555862,92.101410 161.080994,93.022446 
z"/>
<path fill="#2A88B3" opacity="1.000000" stroke="none" 
	d="
M160.176300,65.967865 
	C159.969070,65.887367 159.961700,65.705925 159.981873,65.253471 
	C160.009415,64.982460 160.430832,65.020088 160.634460,65.076996 
	C160.803802,65.453621 160.649811,65.697960 160.176300,65.967865 
z"/>
<path fill="#221F1C" opacity="1.000000" stroke="none" 
	d="
M104.823624,184.644806 
	C102.504517,184.674210 100.140831,184.424622 97.874901,184.786758 
	C91.757996,185.764343 90.259567,184.355240 91.742981,178.340225 
	C92.067642,177.023773 93.119820,175.886749 94.380821,174.339111 
	C95.831459,173.753540 96.738235,173.495956 97.645004,173.238388 
	C97.609901,172.968124 97.574799,172.697876 97.539696,172.427612 
	C96.495453,172.274994 95.451202,172.122360 94.406960,171.969742 
	C94.250977,171.223679 94.094994,170.477615 94.366882,169.358063 
	C95.199554,168.647324 95.604340,168.310059 96.009117,167.972778 
	C96.453705,167.968277 96.898285,167.963776 98.057053,167.946930 
	C104.237991,171.780106 97.507538,176.505325 100.375893,182.181107 
	C102.126984,179.549255 103.348656,177.713089 104.929527,175.889923 
	C106.411934,175.528549 107.535149,175.154190 108.058022,174.979935 
	C108.836105,176.867584 109.493225,178.461777 110.150345,180.055969 
	C110.150345,180.055969 110.077179,180.486099 109.809067,180.893768 
	C107.968506,182.415894 106.396065,183.530350 104.823624,184.644806 
z"/>
<path fill="#201D1D" opacity="1.000000" stroke="none" 
	d="
M73.366562,184.631042 
	C69.515526,184.477325 65.664497,184.323624 61.440624,183.739563 
	C61.449631,182.841492 61.831478,182.373764 62.213326,181.906021 
	C67.663368,181.018005 68.642738,179.343307 69.276474,169.964325 
	C71.005486,169.330765 72.673050,168.719711 75.029968,168.106476 
	C76.450455,169.603241 78.072754,171.337631 77.750290,172.558258 
	C76.661194,176.680832 74.881950,180.621078 73.366562,184.631042 
z"/>
<path fill="#1D1919" opacity="1.000000" stroke="none" 
	d="
M80.892166,169.955887 
	C82.756104,169.334885 84.620041,168.713867 86.483971,168.092850 
	C86.993568,169.943130 88.033401,171.833984 87.895546,173.634705 
	C87.654587,176.782181 87.509087,180.502899 85.759445,182.783356 
	C84.445747,184.495590 80.680717,184.327103 77.526741,184.587646 
	C78.441628,179.468842 82.413094,175.454865 80.892166,169.955887 
z"/>
<path fill="#221E1B" opacity="1.000000" stroke="none" 
	d="
M62.049797,181.538528 
	C61.831478,182.373764 61.449631,182.841492 61.033791,183.625244 
	C58.272720,184.303131 55.545650,184.665024 52.404053,185.098846 
	C51.785656,183.917755 51.581783,182.664719 51.668835,181.200195 
	C52.491871,179.767548 53.319889,178.584839 53.484871,177.315948 
	C53.716671,175.533127 53.456043,173.686264 53.406021,171.866791 
	C55.142967,172.489212 56.874294,173.128128 58.620655,173.722916 
	C59.079891,173.879333 59.585648,173.899185 60.434742,173.987610 
	C61.161720,176.385986 61.523998,178.778519 62.049797,181.538528 
z"/>
<path fill="#D1D0CE" opacity="1.000000" stroke="none" 
	d="
M80.552185,169.871765 
	C82.413094,175.454865 78.441628,179.468842 77.098633,184.551956 
	C76.202187,184.881699 75.253578,184.838867 73.835770,184.713531 
	C74.881950,180.621078 76.661194,176.680832 77.750290,172.558258 
	C78.072754,171.337631 76.450455,169.603241 75.348000,167.977448 
	C77.692810,165.227081 77.692810,165.227081 80.552185,169.871765 
z"/>
<path fill="#E5E2DF" opacity="1.000000" stroke="none" 
	d="
M104.570343,175.876938 
	C103.348656,177.713089 102.126984,179.549255 100.375893,182.181107 
	C97.507538,176.505325 104.237991,171.780106 98.380280,167.864899 
	C100.071678,167.504944 102.154007,167.214676 104.734680,167.238861 
	C105.504120,168.076340 105.775238,168.599380 106.016930,169.516846 
	C105.515114,171.899826 105.042732,173.888382 104.570343,175.876938 
z"/>
<path fill="#15110F" opacity="1.000000" stroke="none" 
	d="
M104.929535,175.889923 
	C105.042732,173.888382 105.515114,171.899826 106.258224,169.432419 
	C106.698677,168.672501 106.868401,168.391418 107.038124,168.110352 
	C108.967682,168.110352 110.897247,168.110352 113.318916,168.110352 
	C112.438324,172.226624 111.639877,175.958908 110.495888,179.873596 
	C109.493225,178.461777 108.836105,176.867584 108.058022,174.979935 
	C107.535149,175.154190 106.411934,175.528549 104.929535,175.889923 
z"/>
<path fill="#15110F" opacity="1.000000" stroke="none" 
	d="
M105.247864,184.717957 
	C106.396065,183.530350 107.968506,182.415894 109.859329,181.106049 
	C110.951515,183.752853 110.951515,183.752853 105.247864,184.717957 
z"/>
<path fill="#2F2A2A" opacity="1.000000" stroke="none" 
	d="
M94.304398,172.301636 
	C95.451202,172.122360 96.495453,172.274994 97.539696,172.427612 
	C97.574799,172.697876 97.609901,172.968124 97.645004,173.238388 
	C96.738235,173.495956 95.831459,173.753540 94.577896,174.014862 
	C94.221336,173.556915 94.211586,173.095230 94.304398,172.301636 
z"/>
<path fill="#EEEDEC" opacity="1.000000" stroke="none" 
	d="
M107.002365,167.808472 
	C106.868401,168.391418 106.698677,168.672501 106.287659,169.037994 
	C105.775238,168.599380 105.504120,168.076340 105.111717,167.283951 
	C105.649155,167.178604 106.307884,167.342590 107.002365,167.808472 
z"/>
<path fill="#2F2A2A" opacity="1.000000" stroke="none" 
	d="
M95.882614,167.692108 
	C95.604340,168.310059 95.199554,168.647324 94.516762,169.002502 
	C94.744537,168.484100 95.250328,167.947784 95.882614,167.692108 
z"/>
<path fill="#EEEDEC" opacity="1.000000" stroke="none" 
	d="
M134.398804,163.723068 
	C134.558899,163.849823 134.582031,164.068985 134.605179,164.288162 
	C134.490738,164.130600 134.376312,163.973053 134.398804,163.723068 
z"/>
<path fill="#1C1917" opacity="1.000000" stroke="none" 
	d="
M143.373901,185.013367 
	C141.576263,184.836090 140.139465,184.482147 138.321030,184.191315 
	C137.618866,183.083328 137.298340,181.912231 137.293213,180.206146 
	C138.749008,178.453659 139.889374,177.236145 141.029739,176.018631 
	C141.029739,176.018631 141.002762,175.997208 141.337067,175.980896 
	C142.100632,175.894333 142.529892,175.824097 143.360962,175.787918 
	C145.773010,175.369476 147.783264,174.916962 149.799866,174.463028 
	C149.799866,172.717514 149.799866,171.311890 149.799866,168.617340 
	C146.981186,170.595520 144.958054,172.015381 142.606720,173.392654 
	C141.855820,173.224503 141.433136,173.098938 141.010437,172.973389 
	C141.447144,171.973068 141.883850,170.972748 142.972672,169.891098 
	C144.418686,168.874023 145.212570,167.938263 146.006454,167.002518 
	C149.016891,167.000427 152.027328,166.998337 155.456177,167.459900 
	C156.529602,168.410080 157.184616,168.896591 157.839630,169.383087 
	C157.885620,169.763931 157.931610,170.144760 157.718155,170.875519 
	C157.049011,172.150467 156.639328,173.075500 156.074677,174.308411 
	C155.936539,175.074173 155.953354,175.532059 155.724945,176.334305 
	C155.293182,178.966476 155.106644,181.254303 154.954285,183.575195 
	C154.988449,183.608276 154.963959,183.625214 154.963959,183.625214 
	C151.220886,184.029053 147.477798,184.432877 143.373901,185.013367 
z"/>
<path fill="#272422" opacity="1.000000" stroke="none" 
	d="
M185.159180,167.082031 
	C186.485748,166.986069 187.815384,166.779083 189.138290,166.815567 
	C192.696045,166.913742 194.038605,169.031342 192.810959,172.393311 
	C191.446838,176.129044 190.127228,179.881012 188.340973,184.876831 
	C186.753677,184.876831 184.008148,184.876831 180.740280,184.465027 
	C181.283112,179.121490 185.787537,174.935181 183.703979,169.148087 
	C184.375565,168.384567 184.767380,167.733307 185.159180,167.082031 
z"/>
<path fill="#181715" opacity="1.000000" stroke="none" 
	d="
M155.438751,183.650345 
	C154.963959,183.625214 154.988449,183.608276 155.354523,183.721863 
	C157.164276,181.891815 158.607986,179.948196 160.386200,178.003479 
	C161.095901,177.316574 161.471100,176.630768 161.869202,175.638657 
	C161.564682,174.898056 161.237244,174.463760 160.909821,174.029465 
	C161.385544,172.332886 161.861267,170.636292 162.970764,168.882904 
	C164.105194,168.231842 164.605850,167.637558 165.106506,167.043274 
	C166.843430,166.967529 168.580368,166.891785 170.765350,167.220139 
	C171.821136,168.269257 172.428864,168.914291 173.023956,169.906342 
	C172.851578,171.152878 172.691788,172.052399 172.066193,172.888214 
	C170.138657,172.904404 168.676895,172.984283 166.796066,173.087067 
	C166.796066,176.579071 166.796066,179.781876 166.494415,182.927246 
	C163.353912,180.255600 162.500626,182.117249 161.983688,184.737045 
	C159.960312,184.383194 157.936935,184.029343 155.438751,183.650345 
z"/>
<path fill="#23201E" opacity="1.000000" stroke="none" 
	d="
M172.532013,172.951904 
	C172.691788,172.052399 172.851578,171.152878 173.227524,169.699341 
	C173.968292,168.432510 174.492889,167.719711 175.017487,167.006927 
	C175.017487,167.006927 175.505493,167.007507 175.859100,167.318481 
	C177.057571,167.719315 177.902435,167.809174 179.099182,167.934570 
	C179.922226,167.980942 180.393372,167.991776 180.970947,168.255325 
	C181.184952,168.655823 181.292572,168.803589 181.384720,169.225159 
	C181.300247,169.668274 181.231277,169.837585 180.843155,170.009140 
	C179.972504,170.108093 179.420990,170.204803 178.869492,170.301498 
	C178.877167,170.485626 178.884842,170.669739 178.892517,170.853851 
	C179.645691,170.900620 180.398880,170.947388 181.233673,171.391068 
	C180.196060,175.818146 179.076843,179.848297 177.957611,183.878448 
	C175.602753,183.917252 173.247879,183.956070 170.455948,183.572067 
	C170.856583,179.750137 171.694305,176.351028 172.532013,172.951904 
z"/>
<path fill="#D6D5D2" opacity="1.000000" stroke="none" 
	d="
M172.066208,172.888214 
	C171.694305,176.351028 170.856583,179.750137 170.071030,183.537567 
	C169.587875,184.612152 169.052567,185.298431 168.376999,186.164536 
	C168.028427,185.696152 167.608917,185.132462 167.087799,184.027054 
	C166.922821,183.318436 166.859451,183.151566 166.796066,182.984680 
	C166.796066,179.781876 166.796066,176.579071 166.796066,173.087067 
	C168.676895,172.984283 170.138657,172.904404 172.066208,172.888214 
z"/>
<path fill="#D6D5D2" opacity="1.000000" stroke="none" 
	d="
M181.162308,170.006897 
	C181.231277,169.837585 181.300247,169.668274 181.729691,169.213303 
	C182.534836,169.038559 182.979523,169.149445 183.424210,169.260345 
	C185.787537,174.935181 181.283112,179.121490 180.322998,184.402863 
	C179.744873,184.652084 179.061691,184.551636 178.168060,184.164825 
	C179.076843,179.848297 180.196060,175.818146 181.317841,171.145111 
	C181.267715,170.337097 181.215012,170.171997 181.162308,170.006897 
z"/>
<path fill="#EDECEC" opacity="1.000000" stroke="none" 
	d="
M160.051697,178.004578 
	C158.607986,179.948196 157.164276,181.891815 155.320343,183.688782 
	C155.106644,181.254303 155.293182,178.966476 156.023163,176.318192 
	C157.040070,175.647766 157.513504,175.337814 157.986938,175.027863 
	C158.765472,174.768082 159.543991,174.508301 160.616165,174.139008 
	C161.237244,174.463760 161.564682,174.898056 161.592163,175.736298 
	C160.878723,176.761703 160.465210,177.383133 160.051697,178.004578 
z"/>
<path fill="#23231F" opacity="1.000000" stroke="none" 
	d="
M166.494415,182.927246 
	C166.859451,183.151566 166.922821,183.318436 166.995300,183.752930 
	C165.571915,184.316803 164.139435,184.613052 162.345306,184.823181 
	C162.500626,182.117249 163.353912,180.255600 166.494415,182.927246 
z"/>
<path fill="#EEEDEC" opacity="1.000000" stroke="none" 
	d="
M183.703979,169.148087 
	C182.979523,169.149445 182.534836,169.038559 181.745178,168.939514 
	C181.292572,168.803589 181.184952,168.655823 181.054779,168.019379 
	C181.018311,167.364380 181.004425,167.198029 180.990524,167.031677 
	C182.171219,166.954453 183.351929,166.877213 184.845901,166.941010 
	C184.767380,167.733307 184.375565,168.384567 183.703979,169.148087 
z"/>
<path fill="#EDECEC" opacity="1.000000" stroke="none" 
	d="
M174.634766,166.981369 
	C174.492889,167.719711 173.968292,168.432510 173.240143,169.352310 
	C172.428864,168.914291 171.821136,168.269257 171.198944,167.281219 
	C172.206985,166.944061 173.229507,166.949936 174.634766,166.981369 
z"/>
<path fill="#EDECEC" opacity="1.000000" stroke="none" 
	d="
M157.900085,169.062134 
	C157.184616,168.896591 156.529602,168.410080 155.895996,167.570282 
	C155.932144,167.014191 155.946854,166.811371 155.986862,166.304581 
	C156.012146,166.000610 156.487961,166.001648 156.725403,166.002960 
	C157.295410,166.916565 157.627975,167.828857 157.900085,169.062134 
z"/>
<path fill="#EDECEC" opacity="1.000000" stroke="none" 
	d="
M156.229645,174.000534 
	C156.639328,173.075500 157.049011,172.150467 157.715668,171.024628 
	C158.000717,171.618530 158.028839,172.413254 157.738739,173.604904 
	C157.023560,174.001389 156.626602,174.000961 156.229645,174.000534 
z"/>
<path fill="#EEEDEC" opacity="1.000000" stroke="none" 
	d="
M178.747284,167.899017 
	C177.902435,167.809174 177.057571,167.719315 176.103027,167.325073 
	C176.842117,166.775650 177.690918,166.530609 178.724121,166.806000 
	C178.854767,167.517288 178.801025,167.708145 178.747284,167.899017 
z"/>
<path fill="#EEEDEC" opacity="1.000000" stroke="none" 
	d="
M156.074677,174.308411 
	C156.626602,174.000961 157.023560,174.001389 157.718582,174.001831 
	C158.010818,174.172714 158.004990,174.343582 157.993057,174.771149 
	C157.513504,175.337814 157.040070,175.647766 156.268402,175.973831 
	C155.953354,175.532059 155.936539,175.074173 156.074677,174.308411 
z"/>
<path fill="#EDECEC" opacity="1.000000" stroke="none" 
	d="
M164.787720,167.029388 
	C164.605850,167.637558 164.105194,168.231842 163.293472,168.791901 
	C163.477905,168.176971 163.973404,167.596237 164.787720,167.029388 
z"/>
<path fill="#272422" opacity="1.000000" stroke="none" 
	d="
M179.099182,167.934570 
	C178.801025,167.708145 178.854767,167.517288 178.928314,167.028931 
	C179.403793,166.786987 179.859451,166.842560 180.652817,166.964905 
	C181.004425,167.198029 181.018311,167.364380 180.948364,167.766663 
	C180.393372,167.991776 179.922226,167.980942 179.099182,167.934570 
z"/>
<path fill="#EEEDEC" opacity="1.000000" stroke="none" 
	d="
M180.536987,164.563171 
	C180.475784,164.602325 180.598175,164.524017 180.536987,164.563171 
z"/>
<path fill="#CEC9C7" opacity="1.000000" stroke="none" 
	d="
M127.966667,182.604156 
	C127.514763,183.008453 127.065239,183.000824 126.081650,182.972168 
	C125.547585,182.951157 125.149048,182.936340 125.149048,182.936340 
	C123.255447,178.088120 124.359940,173.896088 129.547867,170.368866 
	C128.928329,175.008423 128.448700,178.600311 127.966667,182.604156 
z"/>
<path fill="#EDECEC" opacity="1.000000" stroke="none" 
	d="
M140.638794,176.004303 
	C139.889374,177.236145 138.749008,178.453659 137.278976,179.830597 
	C136.546967,180.002548 136.144592,180.015076 135.440369,180.019348 
	C135.890152,178.813309 136.641800,177.615509 137.647049,176.197235 
	C138.683044,175.981186 139.465439,175.985596 140.638794,176.004303 
z"/>
<path fill="#272422" opacity="1.000000" stroke="none" 
	d="
M124.900696,183.046722 
	C125.149048,182.936340 125.547585,182.951157 125.744583,182.982086 
	C125.474762,183.634644 125.007942,184.256256 124.217995,184.713730 
	C124.147362,184.085434 124.399857,183.621262 124.900696,183.046722 
z"/>
<path fill="#272422" opacity="1.000000" stroke="none" 
	d="
M120.880341,179.273727 
	C120.780174,179.751816 120.640099,180.002792 120.500031,180.253769 
	C120.360695,180.003098 120.059265,179.693466 120.123520,179.516876 
	C120.201813,179.301666 120.587631,179.198334 120.880341,179.273727 
z"/>
<path fill="#221E1B" opacity="1.000000" stroke="none" 
	d="
M53.998474,168.998779 
	C54.423054,168.117981 54.847641,167.237198 55.272228,166.356400 
	C55.808411,167.057632 56.344597,167.758850 56.880783,168.460068 
	C56.133488,168.656311 55.386192,168.852539 54.319450,169.024384 
	C54.000000,169.000000 53.998474,168.998779 53.998474,168.998779 
z"/>
<path fill="#221E1B" opacity="1.000000" stroke="none" 
	d="
M52.121277,165.728668 
	C52.221073,165.250854 52.361301,165.000076 52.501530,164.749283 
	C52.641518,164.999847 52.944302,165.310074 52.879929,165.485764 
	C52.800999,165.701202 52.414978,165.804123 52.121277,165.728668 
z"/>
<path fill="#221E1B" opacity="1.000000" stroke="none" 
	d="
M54.000595,169.000732 
	C53.907459,169.036652 53.813732,169.071869 53.859241,169.052933 
	C53.998474,168.998779 54.000000,169.000000 54.000595,169.000732 
z"/>
<path fill="#EDECEC" opacity="1.000000" stroke="none" 
	d="
M145.649536,166.990662 
	C145.212570,167.938263 144.418686,168.874023 143.301575,169.765610 
	C143.749756,168.807236 144.521194,167.893021 145.649536,166.990662 
z"/>
<path fill="#EEEDEC" opacity="1.000000" stroke="none" 
	d="
M141.001068,173.355103 
	C141.433136,173.098938 141.855820,173.224503 142.580933,173.682007 
	C142.908600,174.593903 142.933884,175.173874 142.959152,175.753845 
	C142.529892,175.824097 142.100632,175.894333 141.343964,175.996124 
	C141.008270,175.264053 140.999985,174.500443 141.001068,173.355103 
z"/>
<path fill="#EEEDEC" opacity="1.000000" stroke="none" 
	d="
M143.275726,165.115753 
	C143.752502,165.215759 144.002655,165.355865 144.252808,165.495972 
	C144.003006,165.635529 143.692444,165.938019 143.518829,165.873260 
	C143.303085,165.792831 143.200531,165.408783 143.275726,165.115753 
z"/>
<path fill="#EEEDEC" opacity="1.000000" stroke="none" 
	d="
M147.449036,164.538361 
	C147.414230,164.480530 147.483826,164.596176 147.449036,164.538361 
z"/>
<path fill="#D5281F" opacity="1.000000" stroke="none" 
	d="
M130.460602,126.991837 
	C129.957947,126.026276 129.788086,125.172302 129.409119,124.061615 
	C129.954010,122.950294 130.708008,122.095695 130.674454,122.133720 
	C127.246651,114.051491 124.258163,106.317848 120.708923,98.850739 
	C117.791199,92.712265 114.226730,86.879517 110.882080,80.948959 
	C110.623177,80.489883 109.835701,80.328911 108.379044,79.523613 
	C108.142426,81.890732 107.964333,83.672440 107.926483,85.778748 
	C105.093681,92.204720 102.120636,98.306107 99.029877,104.755295 
	C97.929436,110.134247 94.187065,110.328255 90.227203,109.960861 
	C88.104179,109.763901 86.005051,109.309372 83.409531,108.648727 
	C82.293228,107.899567 81.662521,107.472763 81.031815,107.045967 
	C80.864296,107.025871 80.696770,107.005768 80.266754,106.584755 
	C79.688225,104.783798 79.372192,103.383736 79.056160,101.983681 
	C79.235703,101.425438 79.415237,100.867203 80.029137,100.035439 
	C80.711670,99.582382 80.869225,99.343124 80.936157,99.044151 
	C80.971359,98.312401 81.006561,97.580650 81.053505,96.485435 
	C81.550827,95.513412 82.036423,94.904861 82.966400,94.265808 
	C83.574982,93.161026 83.739174,92.086746 83.903374,91.012459 
	C84.610039,89.268265 85.316704,87.524078 86.270325,85.294693 
	C86.781784,84.603554 86.946327,84.336082 87.010910,84.007088 
	C91.388542,73.001648 95.810364,62.013432 100.111115,50.978031 
	C101.120377,48.388336 102.391373,46.726086 105.513817,46.911659 
	C107.951744,47.056549 110.420456,46.570953 112.874809,46.578701 
	C116.436569,46.589943 119.122871,46.925003 120.372215,51.659950 
	C121.938354,57.595512 125.399338,63.012657 127.817589,68.748375 
	C129.409241,72.523567 130.518631,76.499649 132.018906,80.317017 
	C132.612015,81.826126 133.679535,83.148788 134.824463,84.701523 
	C135.117874,84.846703 135.151932,84.846062 135.086243,85.252884 
	C136.394257,88.739105 137.767944,91.818512 139.122650,94.908188 
	C139.103683,94.918449 139.132187,94.877007 139.132187,94.877007 
	C139.747864,97.370308 140.155991,99.937790 141.015961,102.343773 
	C144.350937,111.674088 147.776733,120.973083 151.287415,130.238770 
	C152.329559,132.989273 153.760941,135.592300 155.061035,138.639938 
	C155.080704,139.185486 155.053268,139.354004 154.667068,139.770691 
	C153.513367,140.326233 152.718430,140.633621 151.923492,140.941010 
	C149.267502,140.936783 146.611496,140.932571 143.397522,140.778748 
	C142.527206,140.726593 142.214874,140.824005 141.902542,140.921448 
	C141.491791,140.920822 141.081055,140.920212 140.362915,140.924576 
	C139.268311,140.621933 138.481094,140.314331 137.359879,139.990326 
	C136.296738,138.659439 135.567596,137.344925 134.510010,135.928558 
	C133.052139,132.918945 131.922760,130.011185 130.460602,126.991837 
z"/>
<path fill="#1F8FC3" opacity="1.000000" stroke="none" 
	d="
M119.997269,120.605682 
	C116.753510,117.944405 113.613914,118.101387 109.750694,120.330307 
	C107.910202,121.392189 104.983269,120.571014 102.484467,120.053040 
	C103.930832,118.842331 105.441200,118.181396 106.951569,117.520462 
	C108.320847,117.304314 109.690117,117.088158 111.854767,116.880386 
	C115.117065,116.917747 117.583984,116.946739 120.050911,116.975723 
	C120.050911,116.975723 120.013855,116.982018 120.023636,116.963989 
	C120.024750,118.030327 120.016083,119.114685 119.997269,120.605682 
z"/>
<path fill="#328EB5" opacity="1.000000" stroke="none" 
	d="
M83.955147,117.962357 
	C77.526665,116.436821 72.559029,113.097893 70.056793,106.381287 
	C72.154495,107.664017 74.219246,109.304939 76.643280,110.968979 
	C77.002563,110.992088 77.000549,111.000580 77.092674,111.341736 
	C78.718864,112.545769 80.252930,113.408646 81.787003,114.271523 
	C81.787003,114.271523 81.851830,114.259796 82.019180,114.478943 
	C82.773270,114.864235 83.360023,115.030380 83.946762,115.196533 
	C83.968903,115.562164 83.991043,115.927788 84.016068,116.845291 
	C83.997696,117.585556 83.976425,117.773956 83.955147,117.962357 
z"/>
<path fill="#2A86AD" opacity="1.000000" stroke="none" 
	d="
M83.965225,117.986969 
	C83.976425,117.773956 83.997696,117.585556 84.062073,117.116135 
	C91.453285,117.017899 98.801384,117.200684 106.550522,117.451965 
	C105.441200,118.181396 103.930832,118.842331 102.203766,119.776115 
	C98.295258,120.032265 94.603462,120.015572 90.227219,119.722321 
	C87.695976,118.982964 85.849182,118.520164 84.002388,118.057373 
	C84.002388,118.057373 83.975304,118.011589 83.965225,117.986969 
z"/>
<path fill="#4790AF" opacity="1.000000" stroke="none" 
	d="
M120.044952,116.591812 
	C117.583984,116.946739 115.117065,116.917747 112.275574,116.870743 
	C114.765671,113.732468 117.893799,113.484596 120.044952,116.591812 
z"/>
<path fill="#DCF4F7" opacity="1.000000" stroke="none" 
	d="
M81.817398,113.904251 
	C80.252930,113.408646 78.718864,112.545769 77.097137,111.339813 
	C78.622253,111.843475 80.235023,112.690224 81.817398,113.904251 
z"/>
<path fill="#DCF4F7" opacity="1.000000" stroke="none" 
	d="
M83.803711,114.901222 
	C83.360023,115.030380 82.773270,114.864235 82.007370,114.448196 
	C82.439018,114.334175 83.049835,114.470039 83.803711,114.901222 
z"/>
<path fill="#F9EBE7" opacity="1.000000" stroke="none" 
	d="
M124.074341,117.158737 
	C124.446907,117.347443 124.813118,117.844055 125.062126,118.661522 
	C124.652618,118.477142 124.360306,117.971893 124.074341,117.158737 
z"/>
<path fill="#F9F9F7" opacity="1.000000" stroke="none" 
	d="
M146.130707,96.968979 
	C145.931686,96.975182 145.732681,96.981377 144.909760,96.952278 
	C143.169388,96.290436 142.052887,95.663887 140.936401,95.037331 
	C140.936401,95.037331 141.005096,95.018211 141.001816,94.687668 
	C140.357254,93.564491 139.715988,92.771866 138.912140,91.697258 
	C138.730042,90.982819 138.710556,90.550362 138.989517,90.001984 
	C139.591553,89.387299 139.895126,88.888535 140.198715,88.389771 
	C139.411713,88.297646 138.624725,88.205521 137.889160,88.073471 
	C137.940582,88.033531 137.884277,88.150970 137.882385,87.934692 
	C137.809387,87.421616 137.643311,87.194153 137.274628,86.735092 
	C137.081253,86.018410 136.995514,85.602684 136.947021,84.767815 
	C135.612579,81.240494 134.240891,78.132301 132.869217,75.024117 
	C132.293518,74.492401 131.422501,74.066956 131.187073,73.412788 
	C128.335480,65.489212 125.577606,57.531921 122.893303,49.187912 
	C124.126068,50.276390 125.260880,51.760357 126.833755,53.761745 
	C132.555420,55.477139 137.839020,56.675110 143.122620,57.873077 
	C143.122620,57.873077 142.999496,57.887074 143.050980,58.236679 
	C149.432617,67.526855 150.895477,77.058601 147.053238,87.466164 
	C146.195648,89.789124 146.497986,92.540298 146.226440,95.405334 
	C146.167969,96.133888 146.149338,96.551437 146.130707,96.968979 
z"/>
<path fill="#F9EBE7" opacity="1.000000" stroke="none" 
	d="
M132.902725,75.413681 
	C134.240891,78.132301 135.612579,81.240494 136.656525,84.697868 
	C135.936508,84.980057 135.544220,84.913063 135.151932,84.846062 
	C135.151932,84.846062 135.117874,84.846703 135.133362,84.844078 
	C134.411316,81.828712 133.673767,78.815971 132.902725,75.413681 
z"/>
<path fill="#BC4039" opacity="1.000000" stroke="none" 
	d="
M83.661522,91.222198 
	C83.739174,92.086746 83.574982,93.161026 83.196632,94.084053 
	C83.128204,93.099174 83.273941,92.265556 83.661522,91.222198 
z"/>
<path fill="#BC4039" opacity="1.000000" stroke="none" 
	d="
M86.774178,84.016113 
	C86.946327,84.336082 86.781784,84.603554 86.307549,84.923409 
	C86.244362,84.699921 86.390900,84.362526 86.774178,84.016113 
z"/>
<path fill="#328EB5" opacity="1.000000" stroke="none" 
	d="
M76.131432,77.626114 
	C76.158127,76.708191 76.386765,75.887764 76.887115,75.097282 
	C77.038696,75.786774 76.918556,76.446304 76.788422,77.442230 
	C76.778442,77.778625 76.333366,77.723610 76.131432,77.626114 
z"/>
<path fill="#BC4039" opacity="1.000000" stroke="none" 
	d="
M79.010117,102.317505 
	C79.372192,103.383736 79.688225,104.783798 80.014603,106.563019 
	C79.671318,105.511902 79.317696,104.081619 79.010117,102.317505 
z"/>
<path fill="#BC4039" opacity="1.000000" stroke="none" 
	d="
M81.151337,107.306557 
	C81.662521,107.472763 82.293228,107.899567 82.987778,108.632278 
	C82.458046,108.481178 81.864449,108.024162 81.151337,107.306557 
z"/>
<path fill="#BC4039" opacity="1.000000" stroke="none" 
	d="
M80.740639,99.139114 
	C80.869225,99.343124 80.711670,99.582382 80.265564,99.852386 
	C80.143509,99.650475 80.302673,99.414207 80.740639,99.139114 
z"/>
<path fill="#CFF5FA" opacity="1.000000" stroke="none" 
	d="
M142.933868,57.577675 
	C137.839020,56.675110 132.555420,55.477139 127.119186,53.980637 
	C127.582130,53.596073 128.197708,53.510044 129.125214,53.407490 
	C130.381500,53.510010 131.325851,53.629055 132.912781,53.830086 
	C134.069504,53.682590 134.583649,53.453110 135.097794,53.223629 
	C137.646896,54.576508 140.195999,55.929390 142.933868,57.577675 
z"/>
<path fill="#F9EBE7" opacity="1.000000" stroke="none" 
	d="
M140.959351,95.418228 
	C142.052887,95.663887 143.169388,96.290436 144.611786,96.972733 
	C144.956161,97.458725 144.974609,97.888977 144.707581,98.851646 
	C144.245346,99.820442 144.068619,100.256821 143.891891,100.693207 
	C142.922028,99.061844 141.952164,97.430489 140.959351,95.418228 
z"/>
<path fill="#F9EBE7" opacity="1.000000" stroke="none" 
	d="
M139.074738,91.979233 
	C139.715988,92.771866 140.357254,93.564491 140.976776,94.713074 
	C140.551315,95.012718 140.147583,94.956398 139.438019,94.888550 
	C139.132187,94.877007 139.103683,94.918449 139.145737,94.543182 
	C139.150101,93.438347 139.112411,92.708794 139.074738,91.979233 
z"/>
<path fill="#F9F9F7" opacity="1.000000" stroke="none" 
	d="
M144.057938,100.754692 
	C144.068619,100.256821 144.245346,99.820442 144.707260,99.174942 
	C144.958511,99.279854 144.924606,99.593895 144.734406,100.363831 
	C144.578110,100.819740 144.223984,100.816177 144.057938,100.754692 
z"/>
<path fill="#2A88B3" opacity="1.000000" stroke="none" 
	d="
M146.376892,97.211273 
	C146.149338,96.551437 146.167969,96.133888 146.493042,95.157135 
	C147.901367,91.402603 149.003235,88.207298 150.105103,85.011993 
	C150.394302,85.487236 150.683502,85.962486 150.995453,86.729279 
	C151.002914,87.672211 151.225204,88.464470 150.935471,88.953148 
	C148.085159,93.760536 149.386841,98.513336 150.968933,103.689682 
	C149.508804,101.883980 148.065918,99.668770 146.376892,97.211273 
z"/>
<path fill="#AF4740" opacity="1.000000" stroke="none" 
	d="
M152.267426,140.962677 
	C152.718430,140.633621 153.513367,140.326233 154.643829,140.025726 
	C154.190018,140.349869 153.400696,140.667099 152.267426,140.962677 
z"/>
<path fill="#AF4740" opacity="1.000000" stroke="none" 
	d="
M142.194168,140.942810 
	C142.214874,140.824005 142.527206,140.726593 142.954803,140.784164 
	C142.875320,140.947510 142.680557,140.955841 142.194168,140.942810 
z"/>
<path fill="#1F8FC3" opacity="1.000000" stroke="none" 
	d="
M120.903557,123.778206 
	C120.649879,123.903862 120.397652,123.699371 120.165482,123.153290 
	C120.412125,123.047142 120.651947,123.259270 120.903557,123.778206 
z"/>
<path fill="#AC3B36" opacity="1.000000" stroke="none" 
	d="
M75.387199,140.977448 
	C76.181305,140.784225 77.378746,140.614853 78.798500,140.691254 
	C77.944054,140.958435 76.867294,140.979858 75.387199,140.977448 
z"/>
<path fill="#AC3B36" opacity="1.000000" stroke="none" 
	d="
M68.321663,140.984406 
	C68.558899,140.816284 69.136620,140.670135 69.869919,140.739807 
	C69.571045,140.972565 69.116600,140.989471 68.321663,140.984406 
z"/>
<path fill="#1F8FC3" opacity="1.000000" stroke="none" 
	d="
M84.060905,118.397873 
	C85.849182,118.520164 87.695976,118.982964 89.765984,119.716354 
	C88.032608,119.570763 86.076012,119.154564 84.060905,118.397873 
z"/>
<path fill="#2A88B3" opacity="1.000000" stroke="none" 
	d="
M161.404572,92.962769 
	C161.555862,92.101410 162.030746,91.180374 162.821320,90.156311 
	C163.137024,90.053284 163.108032,90.453026 163.089996,90.652512 
	C162.624039,91.535690 162.176117,92.219391 161.404572,92.962769 
z"/>
<path fill="#CFF5FA" opacity="1.000000" stroke="none" 
	d="
M150.063690,84.591461 
	C149.003235,88.207298 147.901367,91.402603 146.532898,94.846123 
	C146.497986,92.540298 146.195648,89.789124 147.053238,87.466164 
	C150.895477,77.058601 149.432617,67.526855 143.111877,58.218651 
	C144.417221,58.694782 145.713165,59.538544 147.404510,60.289131 
	C147.799942,60.195957 147.790527,60.289131 147.790527,60.289131 
	C148.850922,65.958221 150.109421,71.600861 150.871902,77.309738 
	C151.167023,79.519562 150.338745,81.879425 150.063690,84.591461 
z"/>
<path fill="#0A91D7" opacity="1.000000" stroke="none" 
	d="
M147.753235,60.199421 
	C147.641739,58.970413 147.576950,57.737942 147.439377,55.120754 
	C149.110550,56.870277 149.974167,57.774372 150.837769,58.678474 
	C150.075058,59.156967 149.312347,59.635452 148.170074,60.201534 
	C147.790527,60.289131 147.799942,60.195957 147.753235,60.199421 
z"/>
<path fill="#3B85A2" opacity="1.000000" stroke="none" 
	d="
M134.984192,52.933517 
	C134.583649,53.453110 134.069504,53.682590 133.268448,53.800209 
	C133.147034,52.912434 133.312531,52.136528 133.724228,51.185413 
	C134.270493,51.554607 134.570541,52.099007 134.984192,52.933517 
z"/>
<path fill="#2A88B3" opacity="1.000000" stroke="none" 
	d="
M158.100342,61.785130 
	C157.967728,62.041321 157.770279,62.033615 157.277008,62.003784 
	C157.060318,61.700584 157.207886,61.461826 157.604050,61.152374 
	C157.867950,61.199978 157.951721,61.360607 158.100342,61.785130 
z"/>
<path fill="#2A88B3" opacity="1.000000" stroke="none" 
	d="
M159.966156,64.709114 
	C159.727066,64.748741 159.437347,64.499924 159.099182,63.955898 
	C159.339005,63.914013 159.627274,64.167343 159.966156,64.709114 
z"/>
<path fill="#D1D0CE" opacity="1.000000" stroke="none" 
	d="
M143.360962,175.787918 
	C142.933884,175.173874 142.908600,174.593903 142.909119,173.724579 
	C144.958054,172.015381 146.981186,170.595520 149.799866,168.617340 
	C149.799866,171.311890 149.799866,172.717514 149.799866,174.463028 
	C147.783264,174.916962 145.773010,175.369476 143.360962,175.787918 
z"/>
<path fill="#23231F" opacity="1.000000" stroke="none" 
	d="
M160.386200,178.003479 
	C160.465210,177.383133 160.878723,176.761703 161.569275,176.042603 
	C161.471100,176.630768 161.095901,177.316574 160.386200,178.003479 
z"/>
<path fill="#272422" opacity="1.000000" stroke="none" 
	d="
M180.843155,170.009140 
	C181.215012,170.171997 181.267715,170.337097 181.236237,170.748169 
	C180.398880,170.947388 179.645691,170.900620 178.892517,170.853851 
	C178.884842,170.669739 178.877167,170.485626 178.869492,170.301498 
	C179.420990,170.204803 179.972504,170.108093 180.843155,170.009140 
z"/>
<path fill="#AF4740" opacity="1.000000" stroke="none" 
	d="
M138.912140,91.697258 
	C139.112411,92.708794 139.150101,93.438347 139.164703,94.532913 
	C137.767944,91.818512 136.394257,88.739105 135.086243,85.252884 
	C135.544220,84.913063 135.936508,84.980057 136.619293,85.117004 
	C136.995514,85.602684 137.081253,86.018410 137.214828,86.965317 
	C137.323807,87.853340 137.531021,88.071503 137.884277,88.150970 
	C137.884277,88.150970 137.940582,88.033531 137.898224,88.358315 
	C138.134277,89.161362 138.412659,89.639633 138.691071,90.117897 
	C138.710556,90.550362 138.730042,90.982819 138.912140,91.697258 
z"/>
<path fill="#F9EBE7" opacity="1.000000" stroke="none" 
	d="
M138.989502,90.001984 
	C138.412659,89.639633 138.134277,89.161362 137.846802,88.398254 
	C138.624725,88.205521 139.411713,88.297646 140.198715,88.389771 
	C139.895126,88.888535 139.591553,89.387299 138.989502,90.001984 
z"/>
<path fill="#F9EBE7" opacity="1.000000" stroke="none" 
	d="
M137.882385,87.934692 
	C137.531021,88.071503 137.323807,87.853340 137.322479,87.266266 
	C137.643311,87.194153 137.809387,87.421616 137.882385,87.934692 
z"/>
</svg>